<?xml version="1.0" encoding="UTF-8" standalone="no"?>
<!DOCTYPE svg PUBLIC "-//W3C//DTD SVG 1.1//EN" "http://www.w3.org/Graphics/SVG/1.1/DTD/svg11.dtd">
<svg width="100%" height="100%" viewBox="0 0 960 560" version="1.1" xmlns="http://www.w3.org/2000/svg" xmlns:xlink="http://www.w3.org/1999/xlink" xml:space="preserve" xmlns:serif="http://www.serif.com/" style="fill-rule:evenodd;clip-rule:evenodd;stroke-linejoin:round;stroke-miterlimit:2;">
    <g id="Layer-1" serif:id="Layer 1">
        <g transform="matrix(1,0,0,1,0,1)">
            <rect x="0" y="0" width="960" height="559" style="fill:rgb(48,8,4);"/>
        </g>
        <g transform="matrix(0.952852,-0.303435,-0.303435,-0.952852,319.507,163.902)">
            <path d="M-4.351,-0.676C3.568,-0.677 9.986,5.743 9.987,13.661C9.987,21.58 3.567,27.999 -4.351,27.999C-12.269,27.999 -18.688,21.58 -18.689,13.662C-18.689,5.743 -12.269,-0.676 -4.351,-0.676" style="fill:white;fill-rule:nonzero;"/>
        </g>
        <g transform="matrix(0.952847,-0.303452,-0.303452,-0.952847,347.854,157.011)">
            <path d="M-1.992,-0.309C1.634,-0.31 4.574,2.629 4.575,6.256C4.574,9.883 1.635,12.822 -1.992,12.823C-5.618,12.823 -8.558,9.883 -8.558,6.257C-8.558,2.63 -5.619,-0.31 -1.992,-0.309" style="fill:white;fill-rule:nonzero;"/>
        </g>
        <g transform="matrix(1,0,0,1,337.354,337.116)">
            <path d="M0,-61.196C-27.121,-41.328 -57.378,-23.392 -88.943,-9.121C-50.08,0 -11.019,-22.974 0,-61.196" style="fill:white;fill-rule:nonzero;"/>
        </g>
        <g transform="matrix(1,0,0,1,324.215,309.682)">
            <path d="M0,-100.829C6.331,-101.875 10.609,-101.324 12.1,-98.918C13.579,-96.527 12.117,-92.636 8.286,-87.722C6.009,-92.306 3.317,-96.614 0,-100.829M15.625,-62.782C15.368,-65.101 15.006,-67.416 14.527,-69.722C-16.879,-43.34 -72.633,-11.586 -107.769,1.977C-105.581,3.877 -103.289,5.62 -100.923,7.239C-136.998,21.148 -165.615,24.33 -172.665,12.942C-179.738,1.517 -162.575,-19.324 -132.58,-42.641C-132.021,-39.149 -131.208,-35.673 -130.137,-32.244C-149.497,-16.18 -160.068,-3.09 -156.653,2.426C-145.24,20.863 -12.451,-51.736 24.982,-92.346C33.941,-102.066 38.477,-109.213 36.125,-113.012C32.82,-118.351 17.101,-115.501 -5.107,-106.67C-7.375,-109.006 -9.777,-111.17 -12.292,-113.16C20.215,-126.597 45.228,-130.859 51.854,-120.155C58.719,-109.068 43.476,-86.869 15.625,-62.782M-119.296,-10.657C-126.445,-9.147 -131.283,-9.498 -132.891,-12.095C-134.556,-14.784 -132.526,-19.451 -127.609,-25.364C-125.234,-19.765 -122.46,-15.03 -119.296,-10.657M88.345,-141.378C78.751,-156.873 34.412,-145.415 -20.637,-118.882C-43.644,-132.464 -73.195,-133.248 -97.611,-118.385C-121.409,-103.896 -134.245,-78.244 -133.487,-52.25C-185.885,-15.302 -218.583,18.933 -208.589,35.08C-195.607,56.044 -117.285,33.117 -36.62,-15.188C44.045,-63.491 101.326,-120.412 88.345,-141.378" style="fill:white;fill-rule:nonzero;"/>
        </g>
        <g opacity="0.2">
            <g transform="matrix(-0.564992,-0.825096,-0.825096,0.564992,264.002,294.942)">
                <path d="M-31.597,-59.933C-36.146,-59.933 -39.832,-42.787 -39.833,-21.637C-39.833,-0.486 -36.146,16.659 -31.597,16.66C-27.05,16.659 -23.362,-0.486 -23.362,-21.637C-23.362,-42.787 -27.049,-59.933 -31.597,-59.933" style="fill:rgb(0,0,114);fill-rule:nonzero;"/>
            </g>
        </g>
        <g transform="matrix(1,0,0,1,229.825,287.549)">
            <path d="M0,15.7C3.595,17.852 7.95,19.693 12.856,20.868C15.573,21.521 18.455,21.97 21.471,22.154C25.289,22.392 29.321,22.207 33.493,21.479C34.34,21.331 35.189,21.162 36.046,20.969C39.074,20.288 40.699,16.982 39.426,14.15C39.036,13.281 38.417,12.569 37.659,12.068C36.769,11.476 35.691,11.174 34.572,11.255C32.217,11.43 28.706,11.388 24.339,10.458C21.558,9.866 18.43,8.914 15.032,7.425C11.759,5.995 8.237,4.069 4.535,1.485C3.303,0.631 2.052,-0.299 0.784,-1.308C0.784,-1.308 -5.689,-6.692 -10.092,0.07C-12.638,3.979 -8.39,10.682 0,15.7" style="fill:rgb(250,155,39);fill-rule:nonzero;"/>
        </g>
        <g transform="matrix(1,0,0,1,229.825,294.202)">
            <path d="M0,9.047C3.595,11.199 7.95,13.04 12.856,14.215C11.502,10.283 11.772,6.586 13.672,2.956C14.096,2.143 14.566,1.414 15.032,0.772C11.759,-0.658 8.237,-2.584 4.535,-5.168C4.124,-4.545 3.717,-3.879 3.328,-3.174C1.168,0.739 0.057,4.856 0,9.047" style="fill:rgb(249,99,40);fill-rule:nonzero;"/>
        </g>
        <g transform="matrix(1,0,0,1,251.296,298.246)">
            <path d="M0,11.457C3.818,11.696 7.85,11.51 12.022,10.782C12.028,7.064 14.378,3.536 16.188,1.371C15.298,0.779 14.22,0.477 13.1,0.559C10.745,0.734 7.235,0.692 2.868,-0.239C0.834,3.657 -0.126,7.623 0,11.457" style="fill:rgb(249,99,40);fill-rule:nonzero;"/>
        </g>
        <g opacity="0.3">
            <g transform="matrix(1,0,0,1,219.732,308.423)">
                <path d="M0,-20.804C0.39,-21.403 0.796,-21.902 1.213,-22.322C1.351,-18.46 5.392,-13.435 12.031,-9.465C15.626,-7.313 19.981,-5.472 24.887,-4.296C27.604,-3.644 30.486,-3.195 33.503,-3.011C37.32,-2.772 41.352,-2.958 45.524,-3.686C46.371,-3.833 47.22,-4.003 48.077,-4.195C48.781,-4.354 49.408,-4.655 49.941,-5.058C50.113,-2.717 48.583,-0.455 46.138,0.095C45.282,0.287 44.432,0.457 43.585,0.605C39.414,1.333 35.382,1.518 31.564,1.28C28.547,1.096 25.665,0.647 22.948,-0.006C18.042,-1.181 13.687,-3.023 10.092,-5.174C1.702,-10.192 -2.546,-16.896 0,-20.804" style="fill:rgb(0,0,114);fill-rule:nonzero;"/>
            </g>
        </g>
        <g opacity="0.7">
            <g transform="matrix(1,0,0,1,267.445,285.443)">
                <path d="M0,18.143C-0.39,17.274 -1.01,16.562 -1.767,16.061C-2.657,15.469 -3.735,15.167 -4.854,15.248C-7.21,15.423 -10.72,15.381 -15.087,14.451C-17.868,13.859 -20.996,12.907 -24.394,11.418C-27.667,9.988 -31.189,8.062 -34.891,5.478C-36.123,4.624 -37.374,3.694 -38.642,2.686C-38.642,2.686 -43.34,-1.217 -47.454,1.807C-43.06,-4.371 -36.836,0.799 -36.836,0.799C-35.567,1.808 -34.317,2.738 -33.085,3.592C-29.383,6.175 -25.861,8.101 -22.588,9.532C-19.19,11.021 -16.062,11.973 -13.28,12.564C-8.914,13.495 -5.403,13.537 -3.048,13.362C-1.929,13.281 -0.851,13.582 0.04,14.174C0.797,14.675 1.416,15.388 1.806,16.257C2.863,18.607 1.922,21.282 -0.159,22.514C0.539,21.22 0.663,19.618 0,18.143" style="fill:white;fill-rule:nonzero;"/>
            </g>
        </g>
        <g transform="matrix(1,0,0,1,222.443,311.214)">
            <path d="M0,-25.296C-0.736,-24.792 -1.409,-24.073 -2.015,-23.143C-3.133,-21.427 -2.686,-18.954 -0.757,-16.18C2.321,-11.752 8.419,-7.591 15.555,-5.05C21.661,-2.875 31.421,-0.842 43.247,-3.504C44.436,-3.772 45.432,-4.554 45.98,-5.65C46.535,-6.76 46.561,-8.045 46.053,-9.175C45.349,-10.741 43.727,-11.709 42.016,-11.582C35.754,-11.122 22.963,-12.164 7.65,-24.324C7.61,-24.357 4.907,-26.555 2.045,-26.118C1.32,-26.007 0.636,-25.732 0,-25.296M45.58,-2.743C44.992,-2.34 44.327,-2.047 43.611,-1.886C21.871,3.007 3.782,-6.745 -2.119,-15.233C-4.458,-18.599 -4.915,-21.729 -3.405,-24.048C-2.004,-26.199 -0.25,-27.448 1.807,-27.759C5.411,-28.303 8.564,-25.721 8.696,-25.611C23.553,-13.813 35.874,-12.793 41.894,-13.236C44.298,-13.413 46.577,-12.055 47.565,-9.855C48.279,-8.269 48.241,-6.466 47.463,-4.909C47.021,-4.024 46.371,-3.284 45.58,-2.743" style="fill:rgb(0,0,114);fill-rule:nonzero;"/>
        </g>
        <g transform="matrix(1,0,0,1,323.589,301.192)">
            <path d="M0,-17.876C0.207,-17.81 8.041,-15.207 3.085,-8.162C1.584,-6.029 -0.458,-4.316 -2.822,-3.213C-5.195,-2.105 -8.348,-1.345 -10.652,-3.442C-10.652,-3.442 -12.919,0.8 -23.095,7.768L-23.103,7.774C-33.272,14.737 -38.045,15.316 -38.045,15.316C-38.039,15.329 -38.036,15.341 -38.03,15.354C-36.942,18.246 -38.78,20.896 -40.663,22.699C-42.546,24.505 -44.881,25.789 -47.412,26.417C-55.884,28.518 -55.353,20.025 -55.353,20.025C-57.207,18.974 -58.731,17.828 -59.979,16.633C-60.61,16.032 -61.17,15.417 -61.667,14.796C-63.504,12.501 -64.485,10.125 -64.97,7.979C-65.199,6.995 -65.319,6.058 -65.372,5.2C-65.452,3.933 -65.384,2.839 -65.283,2.014C-65.145,0.875 -65.37,-0.276 -65.911,-1.288C-66.107,-1.655 -66.297,-2.022 -66.476,-2.384C-66.808,-3.046 -67.112,-3.695 -67.389,-4.336C-67.878,-5.456 -68.293,-6.537 -68.64,-7.575C-68.916,-8.399 -69.149,-9.195 -69.35,-9.957C-69.656,-11.136 -69.878,-12.236 -70.039,-13.252C-70.208,-14.328 -70.307,-15.308 -70.356,-16.175C-70.389,-16.75 -70.402,-17.275 -70.401,-17.746C-70.404,-19.533 -70.208,-20.544 -70.208,-20.544L-32.458,-46.394C-32.458,-46.394 -31.424,-46.208 -29.728,-45.548C-26.746,-44.384 -21.713,-41.758 -16.652,-36.104C-15.55,-34.873 -14.146,-33.941 -12.561,-33.468C-8.809,-32.355 -1.61,-28.808 -0.003,-17.877L0,-17.876Z" style="fill:rgb(250,155,39);fill-rule:nonzero;"/>
        </g>
        <g transform="matrix(1,0,0,1,285.833,308.102)">
            <path d="M0,-49.675L-13.445,-40.469L-13.708,-40.288L-27.152,-31.082C-26.923,-24.547 -24.412,-16.636 -17.209,-7.782C-17.209,-7.782 -10.64,-7.166 -5.915,-0.941C-5.915,-0.941 2.235,0 10.295,-5.518C18.354,-11.037 20.424,-18.977 20.424,-18.977C16.328,-25.632 18.129,-31.979 18.129,-31.979C12.478,-41.896 6.01,-47.098 0,-49.675" style="fill:white;fill-rule:nonzero;"/>
        </g>
        <g transform="matrix(1,0,0,1,326.674,290.132)">
            <path d="M0,2.899C-1.501,5.032 -3.543,6.745 -5.907,7.847C-8.28,8.955 -11.433,9.715 -13.737,7.619C-16.31,5.485 -17.903,2.526 -17.903,2.526C-6.166,2.96 -3.088,-6.816 -3.088,-6.816L-3.085,-6.815C-2.878,-6.749 4.957,-4.146 0,2.899" style="fill:white;fill-rule:nonzero;"/>
        </g>
        <g transform="matrix(1,0,0,1,285.545,323.112)">
            <path d="M0,-6.604C1.121,-3.698 -0.727,-1.032 -2.618,0.779C-4.501,2.585 -6.837,3.87 -9.368,4.498C-14.313,5.725 -16.193,3.339 -16.899,1.141C-17.386,-0.376 -17.316,-1.803 -17.309,-1.891L-17.309,-1.894C-17.309,-1.894 -7.082,-1.23 -3.242,-12.329C-3.242,-12.329 -1.06,-9.774 0,-6.604" style="fill:white;fill-rule:nonzero;"/>
        </g>
        <g opacity="0.3">
            <g transform="matrix(1,0,0,1,304.38,325.688)">
                <path d="M0,-51.319C-0.079,-51.068 -4.281,-37.729 -13.81,-31.204C-23.339,-24.679 -37.295,-25.584 -37.558,-25.601C-37.265,-25.397 -17.491,-11.596 -36.145,-4.471C-36.145,-4.471 -30.111,0 -21.992,-9.78C-21.077,-10.881 -19.296,-10.561 -18.843,-9.203L-18.836,-9.18C-18.836,-9.18 -14.063,-9.759 -3.894,-16.722C6.276,-23.686 8.541,-27.927 8.541,-27.927C8.535,-27.931 8.529,-27.936 8.522,-27.942C7.42,-28.855 7.765,-30.632 9.122,-31.086C21.177,-35.12 19.19,-42.362 19.19,-42.362C5.802,-27.546 0.084,-50.973 0,-51.319" style="fill:rgb(0,0,114);fill-rule:nonzero;"/>
            </g>
        </g>
        <g opacity="0.3">
            <g transform="matrix(-0.764268,-0.644899,-0.644899,0.764268,267.651,322.296)">
                <path d="M-9.943,-15.963C-12.674,-14.465 -12.981,-11.236 -12.703,-8.632C-12.429,-6.038 -11.472,-3.549 -9.943,-1.437C-6.955,2.69 -3.979,2.079 -2.022,0.854C-5.089,-0.161 -10.839,-3.707 -9.943,-15.963" style="fill:rgb(0,0,114);fill-rule:nonzero;"/>
            </g>
        </g>
        <g opacity="0.3">
            <g transform="matrix(0.324951,0.945731,0.945731,-0.324951,313.413,286.214)">
                <path d="M10.761,-4.217C13.492,-2.72 13.798,0.51 13.521,3.113C13.248,5.708 12.291,8.196 10.761,10.308C7.774,14.436 4.798,13.825 2.841,12.6C5.908,11.584 11.658,8.038 10.761,-4.217" style="fill:rgb(0,0,114);fill-rule:nonzero;"/>
            </g>
        </g>
        <g opacity="0.3">
            <g transform="matrix(1,0,0,1,293.861,282.601)">
                <path d="M0,-26.956C-5.618,-14.737 -15.325,-8.009 -16.339,-7.332C-16.395,-7.294 -16.424,-7.274 -16.424,-7.274C-16.424,-7.274 -26.53,0.002 -40.673,0.846C-40.676,-0.941 -40.48,-1.952 -40.48,-1.952L-2.73,-27.802C-2.73,-27.802 -1.696,-27.616 0,-26.956" style="fill:rgb(0,0,114);fill-rule:nonzero;"/>
            </g>
        </g>
        <g transform="matrix(-0.137056,-0.990563,-0.990563,0.137056,253.574,284.289)">
            <path d="M-0.675,-3.606C-1.846,-1.729 -2.832,-0.403 -3.614,0.524C-2.525,0.543 -1.541,0.508 -0.675,0.436C-0.138,-1.166 -0.143,-2.651 -0.208,-3.496C-0.229,-3.737 -0.547,-3.813 -0.675,-3.606" style="fill:rgb(249,99,40);fill-rule:nonzero;"/>
        </g>
        <g transform="matrix(-0.0818796,-0.996642,-0.996642,0.0818796,256.977,295.936)">
            <path d="M-0.853,-2.558C-1.602,-1.496 -2.274,-0.621 -2.875,0.099C-2.188,0.376 -1.515,0.626 -0.853,0.849C-0.434,-0.483 -0.377,-1.691 -0.396,-2.423C-0.401,-2.665 -0.715,-2.756 -0.853,-2.558" style="fill:rgb(249,99,40);fill-rule:nonzero;"/>
        </g>
        <g transform="matrix(0.873924,0.486063,0.486063,-0.873924,292.858,258.465)">
            <path d="M1.089,-0.787C2.26,1.091 3.246,2.417 4.028,3.344C2.939,3.362 1.955,3.327 1.089,3.256C0.553,1.653 0.557,0.168 0.623,-0.676C0.643,-0.918 0.961,-0.995 1.089,-0.787" style="fill:rgb(249,99,40);fill-rule:nonzero;"/>
        </g>
        <g transform="matrix(0.899591,0.436734,0.436734,-0.899591,303.353,265.561)">
            <path d="M0.77,-0.403C1.519,0.658 2.19,1.533 2.791,2.255C2.105,2.531 1.432,2.78 0.77,3.004C0.35,1.673 0.294,0.463 0.313,-0.269C0.317,-0.51 0.632,-0.602 0.77,-0.403" style="fill:rgb(249,99,40);fill-rule:nonzero;"/>
        </g>
        <g transform="matrix(-0.129393,-0.991593,-0.991593,0.129393,258.625,305.631)">
            <path d="M-0.703,-3.445C-1.806,-1.707 -2.745,-0.445 -3.51,0.465C-2.505,0.565 -1.561,0.561 -0.703,0.504C-0.185,-1.06 -0.177,-2.504 -0.237,-3.332C-0.255,-3.575 -0.574,-3.652 -0.703,-3.445" style="fill:rgb(249,99,40);fill-rule:nonzero;"/>
        </g>
        <g transform="matrix(-0.199649,-0.979868,-0.979868,0.199649,262.785,314.194)">
            <path d="M-1.586,-3.64C-2.392,-2.148 -3.108,-0.984 -3.723,-0.083C-3.008,0.415 -2.294,0.841 -1.586,1.204C-0.866,-0.735 -0.974,-2.586 -1.114,-3.559C-1.149,-3.799 -1.47,-3.854 -1.586,-3.64" style="fill:rgb(249,99,40);fill-rule:nonzero;"/>
        </g>
        <g transform="matrix(0.877741,0.479136,0.479136,-0.877741,310.93,270.946)">
            <path d="M1.039,-0.725C2.143,1.013 3.081,2.275 3.846,3.185C2.841,3.284 1.897,3.282 1.039,3.224C0.521,1.659 0.513,0.216 0.573,-0.611C0.59,-0.855 0.909,-0.933 1.039,-0.725" style="fill:rgb(249,99,40);fill-rule:nonzero;"/>
        </g>
        <g transform="matrix(0.841333,0.540518,0.540518,-0.841333,317.565,278.417)">
            <path d="M1.329,-0.569C2.134,0.923 2.85,2.087 3.465,2.988C2.75,3.486 2.036,3.912 1.329,4.275C0.607,2.335 0.716,0.486 0.856,-0.488C0.891,-0.728 1.212,-0.784 1.329,-0.569" style="fill:rgb(249,99,40);fill-rule:nonzero;"/>
        </g>
        <g opacity="0.5">
            <g transform="matrix(1,0,0,1,323.586,268.824)">
                <path d="M0,14.492C-1.607,3.561 -8.806,0.014 -12.558,-1.099C-14.143,-1.572 -15.546,-2.504 -16.649,-3.735C-21.71,-9.389 -26.743,-12.015 -29.725,-13.179C-31.42,-13.839 -32.454,-14.026 -32.454,-14.026L-34.223,-12.815C-34.223,-12.815 -33.189,-12.628 -31.493,-11.969C-28.511,-10.804 -23.478,-8.179 -18.417,-2.524C-17.314,-1.294 -15.911,-0.361 -14.326,0.112C-10.574,1.225 -3.375,4.771 -1.768,15.703L-1.765,15.703C-1.558,15.77 6.277,18.373 1.32,25.418C0.496,26.589 -0.492,27.632 -1.606,28.518C0.245,27.438 1.851,25.966 3.088,24.207C8.045,17.162 0.21,14.559 0.003,14.493L0,14.492Z" style="fill:white;fill-rule:nonzero;"/>
            </g>
        </g>
        <g opacity="0.5">
            <g transform="matrix(1,0,0,1,268.37,287.811)">
                <path d="M0,33.315C-9.611,27.865 -10.315,19.87 -9.996,15.97C-9.864,14.321 -10.226,12.675 -10.975,11.202C-14.416,4.44 -15.045,-1.202 -15.052,-4.404C-15.054,-6.223 -14.854,-7.255 -14.854,-7.255L-13.086,-8.466C-13.086,-8.466 -13.286,-7.434 -13.284,-5.614C-13.276,-2.413 -12.648,3.229 -9.206,9.992C-8.458,11.464 -8.096,13.11 -8.228,14.759C-8.546,18.659 -7.843,26.654 1.768,32.104L1.768,32.107C1.754,32.324 1.349,40.57 9.709,38.496C11.099,38.151 12.429,37.607 13.658,36.889C11.981,38.224 10.028,39.189 7.941,39.707C-0.419,41.781 -0.014,33.535 -0.001,33.318L0,33.315Z" style="fill:white;fill-rule:nonzero;"/>
            </g>
        </g>
        <g transform="matrix(1,0,0,1,281.502,256.941)">
            <path d="M0,69.172C-1.552,70.235 -3.29,71.018 -5.126,71.474C-7.932,72.17 -10.157,71.854 -11.739,70.534C-13.798,68.817 -14.077,65.936 -14.1,64.752C-24.346,58.704 -24.457,49.764 -24.019,46.166C-23.902,45.201 -24.087,44.229 -24.555,43.355C-30.516,32.217 -29.003,23.899 -28.935,23.55C-28.894,23.336 -28.77,23.146 -28.59,23.023L-9.781,10.143L-8.844,11.512L-27.354,24.187C-27.556,25.788 -28.119,33.182 -23.093,42.573C-22.463,43.749 -22.214,45.061 -22.373,46.366C-22.777,49.683 -22.658,57.999 -12.857,63.555C-12.581,63.712 -12.419,64.012 -12.438,64.328C-12.44,64.36 -12.61,67.656 -10.672,69.265C-9.518,70.224 -7.786,70.425 -5.525,69.864C-3.133,69.271 -0.928,68.056 0.852,66.351C2.49,64.781 4.24,62.382 3.268,59.866C3.176,59.628 3.199,59.36 3.331,59.141C3.462,58.922 3.688,58.776 3.942,58.745C3.984,58.739 8.714,58.054 18.524,51.336C28.334,44.618 30.684,40.456 30.706,40.415C30.828,40.192 31.047,40.036 31.298,39.994C31.548,39.952 31.806,40.025 31.993,40.196C33.987,42.012 36.857,41.248 38.913,40.288C41.145,39.246 43.075,37.629 44.494,35.613C45.835,33.707 46.273,32.02 45.797,30.598C44.997,28.209 41.862,27.175 41.831,27.165C41.53,27.068 41.309,26.809 41.263,26.496C39.745,16.163 33.109,12.714 29.289,11.577C27.598,11.075 26.052,10.08 24.817,8.7C18.074,1.167 11.325,-0.873 9.799,-1.255L-8.711,11.42L-9.648,10.052L9.161,-2.827C9.341,-2.951 9.562,-2.998 9.777,-2.959C10.11,-2.899 18.02,-1.38 26.053,7.594C27.083,8.745 28.365,9.573 29.762,9.988C33.9,11.219 41.041,14.901 42.828,25.769C43.923,26.219 46.51,27.521 47.366,30.061C48.024,32.014 47.514,34.202 45.85,36.567C44.265,38.82 42.108,40.626 39.615,41.79C36.423,43.281 33.687,43.351 31.636,42.011C30.494,43.586 27.256,47.367 19.461,52.704C11.666,58.042 6.971,59.694 5.089,60.189C5.597,62.586 4.543,65.111 1.999,67.549C1.377,68.145 0.707,68.687 0,69.172" style="fill:rgb(0,0,114);fill-rule:nonzero;"/>
        </g>
        <g transform="matrix(1,0,0,1,324.387,291.284)">
            <path d="M0,-7.755C-0.027,-7.655 -0.051,-7.581 -0.076,-7.503C-0.1,-7.423 -0.126,-7.348 -0.153,-7.274C-0.204,-7.124 -0.26,-6.975 -0.322,-6.833C-0.438,-6.542 -0.575,-6.265 -0.707,-5.985C-0.852,-5.712 -0.992,-5.437 -1.152,-5.173C-1.319,-4.915 -1.47,-4.646 -1.653,-4.397C-2.356,-3.388 -3.186,-2.466 -4.14,-1.695C-5.094,-0.932 -6.119,-0.246 -7.243,0.213C-7.788,0.478 -8.377,0.63 -8.949,0.806L-9.164,0.868L-9.385,0.912L-9.827,0.99C-10.122,1.042 -10.416,1.087 -10.709,1.126C-10.84,1.144 -10.96,1.053 -10.977,0.922C-10.991,0.816 -10.933,0.717 -10.841,0.675L-10.82,0.665C-10.555,0.543 -10.292,0.426 -10.029,0.316L-9.634,0.152C-9.569,0.126 -9.503,0.101 -9.438,0.072L-9.248,-0.026L-8.492,-0.406C-8.234,-0.517 -7.999,-0.672 -7.759,-0.815C-6.781,-1.351 -5.9,-2.033 -5.096,-2.78C-4.288,-3.524 -3.596,-4.385 -3.003,-5.301C-2.847,-5.526 -2.722,-5.769 -2.579,-6.001C-2.447,-6.239 -2.321,-6.481 -2.196,-6.722C-2.083,-6.968 -1.963,-7.212 -1.867,-7.462C-1.813,-7.587 -1.769,-7.711 -1.722,-7.834C-1.698,-7.896 -1.675,-7.958 -1.656,-8.017L-1.603,-8.18L-1.587,-8.227C-1.444,-8.662 -0.976,-8.899 -0.542,-8.756C-0.123,-8.618 0.111,-8.176 0,-7.755" style="fill:rgb(0,0,114);fill-rule:nonzero;"/>
        </g>
        <g transform="matrix(1,0,0,1,312.399,295.797)">
            <path d="M0,2.584C-0.125,2.467 -0.196,2.377 -0.283,2.272C-0.365,2.169 -0.441,2.066 -0.514,1.959C-0.659,1.748 -0.787,1.527 -0.908,1.303C-1.144,0.853 -1.344,0.386 -1.471,-0.119C-1.494,-0.213 -1.438,-0.308 -1.344,-0.331C-1.297,-0.343 -1.249,-0.334 -1.21,-0.31C-0.771,-0.042 -0.379,0.245 0.005,0.525L0.568,0.94L1.077,1.324C1.444,1.6 1.517,2.12 1.242,2.487C0.966,2.853 0.445,2.927 0.078,2.651C0.055,2.633 0.033,2.614 0.011,2.595L0,2.584Z" style="fill:rgb(0,0,114);fill-rule:nonzero;"/>
        </g>
        <g transform="matrix(1,0,0,1,319.397,294.769)">
            <path d="M0,3.584C0.002,3.589 -0.007,3.536 -0.015,3.504C-0.02,3.468 -0.03,3.426 -0.038,3.387C-0.056,3.306 -0.075,3.224 -0.101,3.14C-0.143,2.971 -0.2,2.799 -0.257,2.626C-0.375,2.281 -0.516,1.932 -0.676,1.585C-0.836,1.238 -1.017,0.894 -1.211,0.549C-1.405,0.205 -1.615,-0.138 -1.828,-0.491L-1.831,-0.494C-1.879,-0.574 -1.853,-0.679 -1.773,-0.727C-1.718,-0.761 -1.65,-0.758 -1.598,-0.727C-1.418,-0.618 -1.244,-0.499 -1.068,-0.38C-0.902,-0.252 -0.728,-0.128 -0.569,0.013C-0.244,0.288 0.059,0.593 0.342,0.921C0.62,1.254 0.882,1.609 1.103,1.997C1.214,2.191 1.317,2.392 1.407,2.605C1.452,2.71 1.492,2.821 1.532,2.934C1.551,2.992 1.571,3.047 1.588,3.11C1.605,3.176 1.618,3.221 1.638,3.326C1.709,3.778 1.4,4.202 0.948,4.274C0.496,4.345 0.071,4.036 0,3.584" style="fill:rgb(0,0,114);fill-rule:nonzero;"/>
        </g>
        <g transform="matrix(1,0,0,1,326.156,289.258)">
            <path d="M0,3.544C0.002,3.549 -0.009,3.496 -0.017,3.464C-0.023,3.429 -0.035,3.387 -0.044,3.348C-0.065,3.268 -0.086,3.186 -0.114,3.103C-0.163,2.936 -0.224,2.766 -0.287,2.595C-0.416,2.253 -0.568,1.909 -0.738,1.567C-0.909,1.225 -1.101,0.887 -1.305,0.548C-1.51,0.21 -1.731,-0.126 -1.955,-0.471L-1.957,-0.475C-2.008,-0.554 -1.986,-0.658 -1.907,-0.709C-1.853,-0.745 -1.785,-0.745 -1.732,-0.715C-1.549,-0.612 -1.372,-0.499 -1.192,-0.385C-1.022,-0.262 -0.844,-0.143 -0.681,-0.007C-0.347,0.257 -0.035,0.553 0.259,0.872C0.547,1.196 0.819,1.542 1.053,1.923C1.17,2.114 1.279,2.311 1.376,2.521C1.424,2.625 1.468,2.735 1.511,2.846C1.531,2.904 1.553,2.958 1.572,3.02C1.591,3.086 1.606,3.131 1.629,3.234C1.715,3.684 1.419,4.118 0.969,4.204C0.519,4.289 0.086,3.994 0,3.544" style="fill:rgb(0,0,114);fill-rule:nonzero;"/>
        </g>
        <g transform="matrix(1,0,0,1,308.644,274.154)">
            <path d="M0,18.624C-1.313,17.55 -2.365,16.217 -3.261,14.78C-4.142,13.335 -4.838,11.759 -5.275,10.102C-5.714,8.446 -5.892,6.709 -5.757,4.999C-5.625,3.291 -5.174,1.613 -4.417,0.112C-4.358,-0.007 -4.213,-0.054 -4.095,0.005C-3.999,0.053 -3.949,0.157 -3.966,0.258L-3.966,0.263C-4.227,1.88 -4.398,3.463 -4.344,5.038C-4.304,6.612 -4.073,8.165 -3.684,9.687C-3.295,11.208 -2.742,12.694 -2.076,14.144C-1.409,15.592 -0.625,17.011 0.252,18.384L0.258,18.394C0.31,18.476 0.287,18.584 0.205,18.636C0.14,18.678 0.057,18.67 0,18.624" style="fill:rgb(0,0,114);fill-rule:nonzero;"/>
        </g>
        <g transform="matrix(1,0,0,1,268.328,316.579)">
            <path d="M0,3.815L0.172,3.824C0.234,3.828 0.299,3.829 0.366,3.829C0.498,3.83 0.63,3.833 0.765,3.828C1.033,3.829 1.304,3.806 1.574,3.789C1.844,3.76 2.115,3.73 2.385,3.693C2.653,3.643 2.925,3.615 3.191,3.55C4.259,3.329 5.312,2.995 6.299,2.51C7.285,2.031 8.239,1.456 9.093,0.738C9.313,0.566 9.543,0.403 9.74,0.203L10.367,-0.365L10.527,-0.506C10.577,-0.556 10.624,-0.609 10.673,-0.661L10.968,-0.969C11.166,-1.175 11.37,-1.378 11.58,-1.581L11.596,-1.597C11.691,-1.688 11.841,-1.685 11.933,-1.591C12.007,-1.514 12.019,-1.4 11.97,-1.311C11.827,-1.052 11.679,-0.793 11.524,-0.538L11.291,-0.154L11.17,0.037L11.035,0.215C10.664,0.685 10.309,1.179 9.864,1.591C9.03,2.473 8.02,3.18 6.964,3.795C5.9,4.404 4.74,4.846 3.545,5.136C3.248,5.216 2.942,5.26 2.641,5.323C2.337,5.377 2.03,5.408 1.723,5.444C1.414,5.466 1.106,5.494 0.793,5.496C0.638,5.503 0.48,5.501 0.321,5.495C0.242,5.493 0.163,5.49 0.08,5.484C-0.002,5.478 -0.079,5.474 -0.183,5.463C-0.638,5.413 -0.966,5.004 -0.916,4.55C-0.868,4.111 -0.487,3.79 -0.052,3.812L0,3.815Z" style="fill:rgb(0,0,114);fill-rule:nonzero;"/>
        </g>
        <g transform="matrix(1,0,0,1,284.762,314.563)">
            <path d="M0,2.22L-0.173,1.606L-0.357,0.931C-0.479,0.472 -0.605,0.002 -0.696,-0.504C-0.714,-0.598 -0.651,-0.689 -0.557,-0.707C-0.509,-0.716 -0.461,-0.704 -0.424,-0.678C0.001,-0.377 0.364,-0.022 0.699,0.361C0.863,0.555 1.023,0.754 1.168,0.966C1.241,1.072 1.31,1.181 1.376,1.294C1.443,1.413 1.501,1.512 1.565,1.671L1.57,1.685C1.741,2.11 1.535,2.594 1.109,2.765C0.683,2.936 0.2,2.729 0.029,2.304C0.018,2.276 0.008,2.248 0,2.22" style="fill:rgb(0,0,114);fill-rule:nonzero;"/>
        </g>
        <g transform="matrix(1,0,0,1,282.937,319.723)">
            <path d="M0,4.46C-0.09,4.404 -0.128,4.375 -0.183,4.335C-0.236,4.296 -0.279,4.258 -0.327,4.219C-0.418,4.142 -0.507,4.065 -0.589,3.984C-0.755,3.823 -0.904,3.655 -1.045,3.481C-1.327,3.134 -1.563,2.762 -1.773,2.383C-1.977,2 -2.151,1.607 -2.29,1.204C-2.364,1.006 -2.417,0.798 -2.477,0.597C-2.524,0.39 -2.572,0.185 -2.608,-0.022C-2.625,-0.114 -2.563,-0.202 -2.471,-0.218C-2.407,-0.23 -2.345,-0.203 -2.307,-0.155L-2.305,-0.152C-2.053,0.175 -1.81,0.494 -1.559,0.8C-1.307,1.105 -1.052,1.399 -0.786,1.673C-0.521,1.948 -0.246,2.205 0.033,2.441C0.174,2.556 0.313,2.671 0.455,2.772C0.524,2.826 0.595,2.873 0.663,2.92C0.697,2.941 0.732,2.966 0.763,2.984C0.791,3.002 0.837,3.03 0.833,3.026C1.229,3.256 1.363,3.764 1.133,4.16C0.903,4.556 0.396,4.69 0,4.46" style="fill:rgb(0,0,114);fill-rule:nonzero;"/>
        </g>
        <g transform="matrix(1,0,0,1,275.273,323.93)">
            <path d="M0,4.521C-0.088,4.462 -0.125,4.432 -0.179,4.39C-0.231,4.35 -0.273,4.31 -0.319,4.27C-0.408,4.19 -0.494,4.11 -0.573,4.027C-0.735,3.861 -0.879,3.688 -1.014,3.51C-1.285,3.154 -1.509,2.775 -1.707,2.389C-1.899,2 -2.061,1.602 -2.187,1.195C-2.255,0.994 -2.301,0.786 -2.355,0.582C-2.396,0.374 -2.437,0.168 -2.467,-0.041C-2.48,-0.133 -2.416,-0.219 -2.323,-0.233C-2.259,-0.242 -2.198,-0.214 -2.162,-0.164L-2.159,-0.16C-1.918,0.174 -1.685,0.5 -1.444,0.814C-1.202,1.127 -0.956,1.428 -0.698,1.711C-0.442,1.994 -0.176,2.26 0.096,2.504C0.233,2.624 0.369,2.742 0.508,2.848C0.575,2.904 0.644,2.954 0.711,3.003C0.744,3.025 0.779,3.051 0.809,3.069C0.836,3.088 0.881,3.118 0.878,3.114C1.266,3.356 1.385,3.868 1.142,4.256C0.9,4.645 0.389,4.763 0,4.521" style="fill:rgb(0,0,114);fill-rule:nonzero;"/>
        </g>
        <g transform="matrix(1,0,0,1,282.145,299.83)">
            <path d="M0,11.026C-0.963,9.711 -2.003,8.468 -3.112,7.323C-4.223,6.177 -5.408,5.125 -6.686,4.212C-7.964,3.299 -9.329,2.522 -10.781,1.916C-12.231,1.295 -13.768,0.883 -15.371,0.541L-15.375,0.54C-15.505,0.512 -15.588,0.385 -15.56,0.255C-15.538,0.15 -15.45,0.076 -15.348,0.066C-13.675,-0.097 -11.947,0.089 -10.307,0.584C-8.664,1.077 -7.109,1.87 -5.724,2.878C-4.337,3.885 -3.119,5.103 -2.09,6.448C-1.075,7.803 -0.212,9.265 0.315,10.878C0.345,10.97 0.294,11.068 0.202,11.098C0.129,11.123 0.051,11.095 0.007,11.036L0,11.026Z" style="fill:rgb(0,0,114);fill-rule:nonzero;"/>
        </g>
        <g transform="matrix(0.311376,-0.950287,-0.950287,-0.311376,210.59,232.202)">
            <path d="M0.29,-14.58C-12.2,-15.798 -24.032,-23.862 -24.032,-23.862C-21.364,0.434 -3.944,6.212 0.29,7.265C0.883,7.413 1.217,7.466 1.217,7.466C7.802,-2.107 0.29,-14.58 0.29,-14.58" style="fill:rgb(249,99,40);fill-rule:nonzero;"/>
        </g>
        <g transform="matrix(1,0,0,1,224.536,251.447)">
            <path d="M0,-14.981C-2.732,-2.732 1.247,11.022 1.247,11.022C1.247,11.022 -3.677,6.379 -4.048,-3.502C-4.072,-4.137 -4.357,-4.736 -4.853,-5.134C-5.786,-5.885 -7.243,-7.354 -7.425,-9.318C-7.493,-10.045 -7.971,-10.661 -8.664,-10.89C-10.018,-11.337 -12.09,-12.436 -13.21,-15.093C-13.513,-15.813 -13.337,-16.647 -12.782,-17.197C-12.449,-17.528 -12.021,-17.903 -11.509,-18.25C-10.934,-18.641 -10.942,-19.492 -11.523,-19.873C-13.488,-21.162 -17.372,-23.185 -20.759,-21.783C-20.715,-22.392 -20.662,-22.726 -20.662,-22.726C-9.514,-26.003 0,-14.981 0,-14.981" style="fill:rgb(249,99,40);fill-rule:nonzero;"/>
        </g>
        <g transform="matrix(1,0,0,1,203.874,259.192)">
            <path d="M0,-30.471C0,-30.471 -3.462,-8.234 21.908,3.276C21.908,3.276 17.93,-10.476 20.662,-22.726C20.662,-22.726 11.148,-33.747 0,-30.471" style="fill:rgb(249,99,40);fill-rule:nonzero;"/>
        </g>
        <g transform="matrix(1,0,0,1,222.389,244.196)">
            <path d="M0,-11.012C0,-11.012 -5.533,-12.433 -8.976,-8.361C-8.976,-8.361 -7.671,-4.76 -3.684,-5.132C-3.684,-5.132 -3.36,1.421 1.76,1.291C1.76,1.291 0.957,-4.613 3.269,-9.464C3.269,-9.464 1.684,-10.502 0,-11.012" style="fill:rgb(249,99,40);fill-rule:nonzero;"/>
        </g>
        <g transform="matrix(0.316765,-0.948504,-0.948504,-0.316765,219.952,238.676)">
            <path d="M-0.764,1.06C-0.764,1.06 0.541,1.408 1.472,1.06" style="fill:rgb(249,99,40);fill-rule:nonzero;"/>
        </g>
        <g transform="matrix(1,0,0,1,217.877,237.045)">
            <path d="M0,1.969C0.019,1.831 0.042,1.74 0.076,1.631C0.106,1.526 0.147,1.425 0.187,1.324C0.271,1.123 0.375,0.93 0.492,0.744C0.618,0.56 0.749,0.38 0.917,0.227C1.086,0.075 1.295,-0.05 1.535,-0.101L1.56,0.534C1.57,0.723 1.568,0.897 1.582,1.074C1.591,1.25 1.607,1.423 1.621,1.594L1.655,2.07L0,1.969Z" style="fill:rgb(249,99,40);fill-rule:nonzero;"/>
        </g>
        <g transform="matrix(1,0,0,1,222.389,244.196)">
            <path d="M0,-11.012C0,-11.012 -5.533,-12.433 -8.976,-8.361C-8.976,-8.361 -7.671,-4.76 -3.684,-5.132C-3.684,-5.132 -3.36,1.421 1.76,1.291C1.76,1.291 0.957,-4.613 3.269,-9.464C3.269,-9.464 1.684,-10.502 0,-11.012" style="fill:rgb(249,99,40);fill-rule:nonzero;"/>
        </g>
        <g transform="matrix(1,0,0,1,233.088,234.509)">
            <path d="M0,-11.255C-4.838,-6.901 -7.49,-0.816 -8.289,1.244C-8.291,1.253 -8.293,1.258 -8.296,1.264C-8.456,1.669 -8.539,1.914 -8.551,1.952C-8.551,1.955 -8.553,1.957 -8.553,1.957C-20.695,-9.484 -29.215,-5.788 -29.215,-5.788C-26.432,-8.704 -22.62,-10.345 -18.664,-11.221C-9.692,-13.212 0,-11.255 0,-11.255" style="fill:rgb(249,99,40);fill-rule:nonzero;"/>
        </g>
        <g transform="matrix(1,0,0,1,233.088,233.796)">
            <path d="M0,-10.542C-4.838,-6.188 -7.49,-0.103 -8.289,1.957C-7.407,-0.703 -5.326,-9.942 -18.664,-10.508C-9.692,-12.499 0,-10.542 0,-10.542" style="fill:rgb(249,99,40);fill-rule:nonzero;"/>
        </g>
        <g transform="matrix(1,0,0,1,204.851,232.381)">
            <path d="M0,-4.593L0.001,-4.594C-0.337,-4.298 -0.664,-3.988 -0.977,-3.661C-0.977,-3.661 7.543,-7.356 19.685,4.085C19.685,4.085 19.687,4.083 19.687,4.08C19.699,4.041 19.782,3.797 19.941,3.392C19.945,3.386 19.947,3.381 19.949,3.372C20.112,2.95 20.355,2.357 20.678,1.646C8.129,-8.678 0,-4.593 0,-4.593" style="fill:rgb(249,99,40);fill-rule:nonzero;"/>
        </g>
        <g transform="matrix(1,0,0,1,233.089,232.406)">
            <path d="M0,-9.152C0,-9.152 -20.12,-13.212 -29.215,-3.686C-29.215,-3.686 -20.694,-7.381 -8.553,4.06C-8.553,4.06 -5.907,-3.835 0,-9.152" style="fill:rgb(249,99,40);fill-rule:nonzero;"/>
        </g>
        <g transform="matrix(0.998579,0.0532844,0.0532844,-0.998579,260.208,211.378)">
            <path d="M0.318,-0.444C12.809,-1.662 24.641,-9.725 24.641,-9.725C21.973,14.572 4.553,20.349 0.318,21.401C-0.274,21.549 -0.609,21.603 -0.609,21.603C-7.193,12.029 0.318,-0.444 0.318,-0.444" style="fill:rgb(249,99,40);fill-rule:nonzero;"/>
        </g>
        <g transform="matrix(1,0,0,1,260.502,200.336)">
            <path d="M0,11.501C12.408,13.383 23.793,22.065 23.793,22.065C23.793,22.065 21.244,15.796 12.166,11.877C11.582,11.625 11.128,11.143 10.935,10.537C10.573,9.395 9.73,7.505 7.965,6.626C7.311,6.3 6.91,5.631 6.947,4.902C7.019,3.478 6.744,1.149 4.672,-0.855C4.11,-1.399 3.269,-1.536 2.555,-1.218C2.127,-1.027 1.622,-0.763 1.113,-0.412C0.541,-0.017 -0.25,-0.332 -0.395,-1.012C-0.886,-3.309 -1.368,-7.662 1.164,-10.313C0.58,-10.492 0.249,-10.564 0.249,-10.564C-6.836,-1.354 0,11.501 0,11.501" style="fill:rgb(249,99,40);fill-rule:nonzero;"/>
        </g>
        <g transform="matrix(1,0,0,1,260.751,222.401)">
            <path d="M0,-32.628C0,-32.628 21.984,-27.816 23.543,0C23.543,0 12.16,-8.681 -0.249,-10.563C-0.249,-10.563 -7.085,-23.418 0,-32.628" style="fill:rgb(249,99,40);fill-rule:nonzero;"/>
        </g>
        <g transform="matrix(1,0,0,1,258.219,207.328)">
            <path d="M0,1.321C0,1.321 0.675,-4.352 5.717,-6.089C5.717,-6.089 8.602,-3.571 6.814,0.012C6.814,0.012 12.807,2.684 10.835,7.41C10.835,7.41 5.62,4.526 0.262,4.929C0.262,4.929 -0.134,3.076 0,1.321" style="fill:rgb(249,99,40);fill-rule:nonzero;"/>
        </g>
        <g transform="matrix(-0.998854,-0.0478627,-0.0478627,0.998854,262.811,206.877)">
            <path d="M-2.242,0.356C-2.242,0.356 -0.936,0.008 -0.006,0.356" style="fill:rgb(249,99,40);fill-rule:nonzero;"/>
        </g>
        <g transform="matrix(1,0,0,1,264.781,206.489)">
            <path d="M0,1.641L-0.432,1.437C-0.586,1.362 -0.742,1.285 -0.902,1.212C-1.062,1.135 -1.225,1.075 -1.398,0.997L-1.981,0.744C-1.847,0.539 -1.655,0.389 -1.452,0.286C-1.248,0.185 -1.033,0.128 -0.816,0.077C-0.601,0.035 -0.382,0.008 -0.165,0.002C-0.056,0.001 0.053,0 0.161,0.01C0.275,0.018 0.369,0.029 0.504,0.061L0,1.641Z" style="fill:rgb(249,99,40);fill-rule:nonzero;"/>
        </g>
        <g transform="matrix(1,0,0,1,258.219,207.328)">
            <path d="M0,1.321C0,1.321 0.675,-4.352 5.717,-6.089C5.717,-6.089 8.602,-3.571 6.814,0.012C6.814,0.012 12.807,2.684 10.835,7.41C10.835,7.41 5.62,4.526 0.262,4.929C0.262,4.929 -0.134,3.076 0,1.321" style="fill:rgb(249,99,40);fill-rule:nonzero;"/>
        </g>
        <g transform="matrix(1,0,0,1,245.091,189.773)">
            <path d="M0,25.262C5.809,22.326 12.441,22.053 14.651,22.053C14.659,22.054 14.665,22.054 14.672,22.054C15.107,22.051 15.365,22.062 15.405,22.065C15.408,22.066 15.41,22.065 15.41,22.065C9.134,6.608 15.66,0 15.66,0C11.936,1.54 9.027,4.502 6.78,7.873C1.68,15.518 0,25.262 0,25.262" style="fill:rgb(249,99,40);fill-rule:nonzero;"/>
        </g>
        <g transform="matrix(1,0,0,1,245.091,197.646)">
            <path d="M0,17.389C5.809,14.453 12.441,14.18 14.651,14.18C11.852,14.04 2.485,12.64 6.78,0C1.68,7.645 0,17.389 0,17.389" style="fill:rgb(249,99,40);fill-rule:nonzero;"/>
        </g>
        <g transform="matrix(1,0,0,1,259.528,211.308)">
            <path d="M0,-20.961L-0.001,-20.961C0.397,-21.168 0.804,-21.362 1.223,-21.535C1.223,-21.535 -5.303,-14.927 0.973,0.53C0.973,0.53 0.971,0.531 0.968,0.53C0.928,0.527 0.67,0.516 0.235,0.519C0.228,0.519 0.222,0.519 0.214,0.518C-0.239,0.518 -0.88,0.53 -1.659,0.574C-6.748,-14.859 0,-20.961 0,-20.961" style="fill:rgb(249,99,40);fill-rule:nonzero;"/>
        </g>
        <g transform="matrix(1,0,0,1,245.092,189.773)">
            <path d="M0,25.262C0,25.262 3.49,5.036 15.66,0C15.66,0 9.133,6.609 15.41,22.065C15.41,22.065 7.093,21.677 0,25.262" style="fill:rgb(249,99,40);fill-rule:nonzero;"/>
        </g>
        <g transform="matrix(0.311376,-0.950287,-0.950287,-0.311376,210.59,232.202)">
            <path d="M0.29,-14.58C-12.2,-15.798 -24.032,-23.862 -24.032,-23.862C-21.364,0.434 -3.944,6.212 0.29,7.265C0.883,7.413 1.217,7.466 1.217,7.466C7.802,-2.107 0.29,-14.58 0.29,-14.58" style="fill:rgb(255,179,210);fill-rule:nonzero;"/>
        </g>
        <g opacity="0.3">
            <g transform="matrix(1,0,0,1,224.536,251.447)">
                <path d="M0,-14.981C-2.732,-2.732 1.247,11.022 1.247,11.022C1.247,11.022 -3.677,6.379 -4.048,-3.502C-4.072,-4.137 -4.357,-4.736 -4.853,-5.134C-5.786,-5.885 -7.243,-7.354 -7.425,-9.318C-7.493,-10.045 -7.971,-10.661 -8.664,-10.89C-10.018,-11.337 -12.09,-12.436 -13.21,-15.093C-13.513,-15.813 -13.337,-16.647 -12.782,-17.197C-12.449,-17.528 -12.021,-17.903 -11.509,-18.25C-10.934,-18.641 -10.942,-19.492 -11.523,-19.873C-13.488,-21.162 -17.372,-23.185 -20.759,-21.783C-20.715,-22.392 -20.662,-22.726 -20.662,-22.726C-9.514,-26.003 0,-14.981 0,-14.981" style="fill:rgb(0,0,114);fill-rule:nonzero;"/>
            </g>
        </g>
        <g transform="matrix(1,0,0,1,204.635,260.489)">
            <path d="M0,-31.117C-0.139,-29.594 -0.347,-24.929 1.492,-19.395C4.333,-10.847 10.524,-4.169 19.904,0.472C18.942,-3.584 16.945,-14.01 19,-23.779C17.424,-25.448 9.268,-33.455 0,-31.117M21.615,2.663C21.378,2.826 21.071,2.855 20.805,2.734C7.425,-3.336 2.047,-12.409 -0.108,-18.952C-2.45,-26.058 -1.617,-31.661 -1.58,-31.896C-1.531,-32.214 -1.302,-32.474 -0.995,-32.564C3.797,-33.972 9.047,-33.026 14.189,-29.828C18.024,-27.443 20.428,-24.681 20.529,-24.565C20.7,-24.367 20.768,-24.099 20.711,-23.843C18.058,-11.95 21.904,1.613 21.944,1.749C22.033,2.06 21.934,2.394 21.689,2.606C21.665,2.627 21.641,2.646 21.615,2.663" style="fill:rgb(0,0,114);fill-rule:nonzero;"/>
        </g>
        <g transform="matrix(1,0,0,1,222.389,244.196)">
            <path d="M0,-11.012C0,-11.012 -5.533,-12.433 -8.976,-8.361C-8.976,-8.361 -7.671,-4.76 -3.684,-5.132C-3.684,-5.132 -3.36,1.421 1.76,1.291C1.76,1.291 0.957,-4.613 3.269,-9.464C3.269,-9.464 1.684,-10.502 0,-11.012" style="fill:rgb(250,155,39);fill-rule:nonzero;"/>
        </g>
        <g transform="matrix(1,0,0,1,217.877,237.045)">
            <path d="M0,1.969C0.019,1.831 0.042,1.74 0.076,1.631C0.106,1.526 0.147,1.425 0.187,1.324C0.271,1.123 0.375,0.93 0.492,0.744C0.618,0.56 0.749,0.38 0.917,0.227C1.086,0.075 1.295,-0.05 1.535,-0.101L1.56,0.534C1.57,0.723 1.568,0.897 1.582,1.074C1.591,1.25 1.607,1.423 1.621,1.594L1.655,2.07L0,1.969Z" style="fill:rgb(0,0,114);fill-rule:nonzero;"/>
        </g>
        <g transform="matrix(1,0,0,1,214.397,241.322)">
            <path d="M0,-5.338C0.45,-4.518 1.69,-2.847 4.23,-3.083C4.456,-3.104 4.679,-3.032 4.85,-2.884C5.021,-2.736 5.124,-2.524 5.135,-2.299C5.147,-2.083 5.438,2.644 8.836,3.27C8.714,1.437 8.678,-2.576 10.204,-6.255C9.628,-6.581 8.71,-7.052 7.771,-7.338C7.416,-7.424 3.004,-8.419 0,-5.338M10.219,4.85C10.089,4.939 9.934,4.99 9.772,4.994C5.545,5.101 3.928,1.225 3.558,-1.405C0.428,-1.5 -1.278,-3.864 -1.764,-5.204C-1.865,-5.483 -1.809,-5.795 -1.617,-6.022C2.117,-10.439 7.952,-9.004 8.198,-8.941C8.209,-8.938 8.22,-8.935 8.231,-8.931C10.01,-8.393 11.646,-7.328 11.715,-7.283C12.062,-7.055 12.187,-6.607 12.009,-6.232C9.835,-1.672 10.565,3.998 10.573,4.054C10.604,4.288 10.535,4.524 10.382,4.703C10.334,4.76 10.279,4.809 10.219,4.85" style="fill:rgb(0,0,114);fill-rule:nonzero;"/>
        </g>
        <g transform="matrix(1,0,0,1,233.088,234.509)">
            <path d="M0,-11.255C-4.838,-6.901 -7.49,-0.816 -8.289,1.244C-8.291,1.253 -8.293,1.258 -8.296,1.264C-8.456,1.669 -8.539,1.914 -8.551,1.952C-8.551,1.955 -8.553,1.957 -8.553,1.957C-20.695,-9.484 -29.215,-5.788 -29.215,-5.788C-26.432,-8.704 -22.62,-10.345 -18.664,-11.221C-9.692,-13.212 0,-11.255 0,-11.255" style="fill:rgb(250,155,39);fill-rule:nonzero;"/>
        </g>
        <g opacity="0.3">
            <g transform="matrix(1,0,0,1,233.088,233.796)">
                <path d="M0,-10.542C-4.838,-6.188 -7.49,-0.103 -8.289,1.957C-7.407,-0.703 -5.326,-9.942 -18.664,-10.508C-9.692,-12.499 0,-10.542 0,-10.542" style="fill:rgb(0,0,114);fill-rule:nonzero;"/>
            </g>
        </g>
        <g opacity="0.5">
            <g transform="matrix(1,0,0,1,204.851,232.381)">
                <path d="M0,-4.593L0.001,-4.594C-0.337,-4.298 -0.664,-3.988 -0.977,-3.661C-0.977,-3.661 7.543,-7.356 19.685,4.085C19.685,4.085 19.687,4.083 19.687,4.08C19.699,4.041 19.782,3.797 19.941,3.392C19.945,3.386 19.947,3.381 19.949,3.372C20.112,2.95 20.355,2.357 20.678,1.646C8.129,-8.678 0,-4.593 0,-4.593" style="fill:white;fill-rule:nonzero;"/>
            </g>
        </g>
        <g transform="matrix(1,0,0,1,206.785,231.422)">
            <path d="M0,-4.095C3.544,-4.281 9.744,-3.26 17.408,3.603C18.307,1.378 20.591,-3.56 24.537,-7.616C20.149,-8.244 7.767,-9.414 0.074,-4.146C0.049,-4.129 0.024,-4.112 0,-4.095M18.219,5.728C18.139,5.783 18.049,5.824 17.953,5.848C17.678,5.917 17.388,5.841 17.182,5.647C11.131,-0.055 6.067,-1.811 2.885,-2.279C-0.532,-2.782 -2.565,-1.948 -2.586,-1.939C-2.948,-1.787 -3.369,-1.908 -3.592,-2.232C-3.815,-2.555 -3.782,-2.99 -3.511,-3.274C0.362,-7.331 6.792,-9.599 15.083,-9.836C21.274,-10.012 26.259,-9.023 26.468,-8.98C26.775,-8.919 27.021,-8.689 27.103,-8.386C27.186,-8.084 27.091,-7.761 26.858,-7.552C21.18,-2.44 18.563,5.23 18.537,5.307C18.479,5.481 18.366,5.628 18.219,5.728" style="fill:rgb(0,0,114);fill-rule:nonzero;"/>
        </g>
        <g transform="matrix(0.998579,0.0532844,0.0532844,-0.998579,260.208,211.378)">
            <path d="M0.318,-0.444C12.809,-1.662 24.641,-9.725 24.641,-9.725C21.973,14.572 4.553,20.349 0.318,21.401C-0.274,21.549 -0.609,21.603 -0.609,21.603C-7.193,12.029 0.318,-0.444 0.318,-0.444" style="fill:rgb(255,179,210);fill-rule:nonzero;"/>
        </g>
        <g opacity="0.3">
            <g transform="matrix(1,0,0,1,260.502,200.336)">
                <path d="M0,11.501C12.408,13.383 23.793,22.065 23.793,22.065C23.793,22.065 21.244,15.796 12.166,11.877C11.582,11.625 11.128,11.143 10.935,10.537C10.573,9.395 9.73,7.505 7.965,6.626C7.311,6.3 6.91,5.631 6.947,4.902C7.019,3.478 6.744,1.149 4.672,-0.855C4.11,-1.399 3.269,-1.536 2.555,-1.218C2.127,-1.027 1.622,-0.763 1.113,-0.412C0.541,-0.017 -0.25,-0.332 -0.395,-1.012C-0.886,-3.309 -1.368,-7.662 1.164,-10.313C0.58,-10.492 0.249,-10.564 0.249,-10.564C-6.836,-1.354 0,11.501 0,11.501" style="fill:rgb(0,0,114);fill-rule:nonzero;"/>
            </g>
        </g>
        <g transform="matrix(1,0,0,1,261.055,201.094)">
            <path d="M0,9.992C9.851,11.608 18.85,17.24 22.284,19.603C21.348,9.179 17.361,0.993 10.418,-4.747C5.923,-8.462 1.499,-9.954 0.028,-10.376C-5.502,-2.581 -0.986,7.918 0,9.992M23.708,21.991C23.682,22.008 23.656,22.024 23.628,22.039C23.342,22.191 22.994,22.162 22.737,21.966C22.624,21.881 11.37,13.391 -0.677,11.564C-0.937,11.524 -1.162,11.365 -1.285,11.133C-1.357,10.997 -3.063,7.757 -3.9,3.319C-5.023,-2.631 -4.006,-7.868 -0.961,-11.826C-0.765,-12.08 -0.441,-12.199 -0.127,-12.131C0.106,-12.08 5.631,-10.83 11.41,-6.078C16.73,-1.703 23.245,6.592 24.067,21.261C24.084,21.552 23.945,21.828 23.708,21.991" style="fill:rgb(0,0,114);fill-rule:nonzero;"/>
        </g>
        <g transform="matrix(1,0,0,1,258.219,207.328)">
            <path d="M0,1.321C0,1.321 0.675,-4.352 5.717,-6.089C5.717,-6.089 8.602,-3.571 6.814,0.012C6.814,0.012 12.807,2.684 10.835,7.41C10.835,7.41 5.62,4.526 0.262,4.929C0.262,4.929 -0.134,3.076 0,1.321" style="fill:rgb(250,155,39);fill-rule:nonzero;"/>
        </g>
        <g transform="matrix(1,0,0,1,264.781,206.489)">
            <path d="M0,1.641L-0.432,1.437C-0.586,1.362 -0.742,1.285 -0.902,1.212C-1.062,1.135 -1.225,1.075 -1.398,0.997L-1.981,0.744C-1.847,0.539 -1.655,0.389 -1.452,0.286C-1.248,0.185 -1.033,0.128 -0.816,0.077C-0.601,0.035 -0.382,0.008 -0.165,0.002C-0.056,0.001 0.053,0 0.161,0.01C0.275,0.018 0.369,0.029 0.504,0.061L0,1.641Z" style="fill:rgb(0,0,114);fill-rule:nonzero;"/>
        </g>
        <g transform="matrix(1,0,0,1,259.173,204.565)">
            <path d="M0,6.828C3.983,6.735 7.711,8.22 9.376,8.996C10.02,5.601 5.719,3.621 5.521,3.532C5.315,3.439 5.155,3.266 5.079,3.054C5.003,2.842 5.017,2.607 5.118,2.405C6.267,0.101 5.155,-1.646 4.549,-2.356C0.586,-0.67 -0.082,3.806 -0.13,4.167C-0.202,5.146 -0.095,6.173 0,6.828M10.348,10.857C10.288,10.899 10.223,10.932 10.153,10.956C9.93,11.034 9.685,11.013 9.479,10.899C9.429,10.871 4.407,8.14 -0.631,8.519C-1.045,8.55 -1.417,8.271 -1.504,7.865C-1.521,7.784 -1.923,5.874 -1.782,4.021C-1.781,4.009 -1.779,3.998 -1.778,3.986C-1.748,3.734 -0.976,-2.226 4.492,-4.11C4.773,-4.206 5.084,-4.146 5.307,-3.95C6.381,-3.013 7.969,-0.568 6.925,2.384C9.244,3.681 12.273,6.59 10.645,10.493C10.583,10.642 10.479,10.768 10.348,10.857" style="fill:rgb(0,0,114);fill-rule:nonzero;"/>
        </g>
        <g transform="matrix(1,0,0,1,245.091,189.773)">
            <path d="M0,25.262C5.809,22.326 12.441,22.053 14.651,22.053C14.659,22.054 14.665,22.054 14.672,22.054C15.107,22.051 15.365,22.062 15.405,22.065C15.408,22.066 15.41,22.065 15.41,22.065C9.134,6.608 15.66,0 15.66,0C11.936,1.54 9.027,4.502 6.78,7.873C1.68,15.518 0,25.262 0,25.262" style="fill:rgb(250,155,39);fill-rule:nonzero;"/>
        </g>
        <g opacity="0.3">
            <g transform="matrix(1,0,0,1,245.091,197.646)">
                <path d="M0,17.389C5.809,14.453 12.441,14.18 14.651,14.18C11.852,14.04 2.485,12.64 6.78,0C1.68,7.645 0,17.389 0,17.389" style="fill:rgb(0,0,114);fill-rule:nonzero;"/>
            </g>
        </g>
        <g opacity="0.5">
            <g transform="matrix(1,0,0,1,259.528,211.308)">
                <path d="M0,-20.961L-0.001,-20.961C0.397,-21.168 0.804,-21.362 1.223,-21.535C1.223,-21.535 -5.303,-14.927 0.973,0.53C0.973,0.53 0.971,0.531 0.968,0.53C0.928,0.527 0.67,0.516 0.235,0.519C0.228,0.519 0.222,0.519 0.214,0.518C-0.239,0.518 -0.88,0.53 -1.659,0.574C-6.748,-14.859 0,-20.961 0,-20.961" style="fill:white;fill-rule:nonzero;"/>
            </g>
        </g>
        <g transform="matrix(1,0,0,1,246.244,191.185)">
            <path d="M0,22.402C5.208,20.19 10.638,19.846 13.038,19.812C9.41,10.185 10.7,4.035 12.155,0.798C12.13,0.815 12.105,0.832 12.081,0.849C4.387,6.117 1.002,18.084 0,22.402M14.726,21.337C14.579,21.437 14.402,21.489 14.219,21.481C14.138,21.477 6.027,21.15 -0.779,24.59C-1.058,24.731 -1.394,24.703 -1.646,24.517C-1.898,24.33 -2.023,24.018 -1.97,23.709C-1.934,23.499 -1.054,18.493 1.349,12.786C4.567,5.14 9.008,-0.035 14.19,-2.178C14.554,-2.329 14.974,-2.202 15.194,-1.875C15.415,-1.547 15.374,-1.11 15.097,-0.83C15.084,-0.817 13.571,0.777 12.805,4.144C12.091,7.281 11.897,12.637 15.025,20.341C15.132,20.603 15.097,20.9 14.934,21.131C14.877,21.213 14.806,21.282 14.726,21.337" style="fill:rgb(0,0,114);fill-rule:nonzero;"/>
        </g>
        <g transform="matrix(1,0,0,1,293.528,258.712)">
            <path d="M0,-22.616C1.168,-22.438 2.175,-21.947 2.839,-21.544C3.401,-21.205 3.801,-20.644 3.92,-20C5.061,-13.814 -0.307,-6.646 -0.307,-6.646C-5.774,6.595 -16.295,13.887 -17.352,14.592C-17.408,14.63 -17.437,14.65 -17.437,14.65C-17.437,14.65 -28.421,22.56 -43.513,22.842C-43.513,22.842 -52.145,25.227 -57.488,21.91C-58.047,21.564 -58.422,20.986 -58.533,20.342C-58.664,19.576 -58.754,18.457 -58.495,17.307C-58.495,17.307 -62.821,16.865 -65.43,14.817L-65.431,14.815C-65.897,14.447 -66.184,13.901 -66.219,13.31C-66.282,12.223 -66.447,10.112 -66.897,7.475L-66.896,7.472C-66.99,6.934 -67.091,6.378 -67.21,5.799C-67.307,5.319 -67.519,4.642 -67.798,3.795C-68.082,2.926 -68.437,1.879 -68.806,0.677L-68.803,0.677C-69.084,-0.242 -69.372,-1.246 -69.644,-2.325C-71.667,-10.337 -72.805,-22.473 -63.166,-33.425C-62.158,-34.572 -61.034,-35.704 -59.781,-36.816L-59.782,-36.818C-59.215,-37.32 -58.621,-37.819 -57.998,-38.317C-57.084,-39.049 -56.104,-39.77 -55.064,-40.481C-46.643,-46.23 -39.03,-47.843 -32.466,-47.338C-19.232,-46.324 -10.262,-36.689 -7.539,-34.925C-4.619,-33.041 -2.1,-31.808 -0.907,-31.265C-0.367,-31.017 0.036,-30.551 0.208,-29.984C1.164,-26.81 0,-22.616 0,-22.616" style="fill:rgb(250,155,39);fill-rule:nonzero;"/>
        </g>
        <g transform="matrix(1,0,0,1,271.836,277.383)">
            <path d="M0,-31.551C-0.509,-31.391 -1.045,-31.341 -1.576,-31.388C-2.777,-31.493 -5.757,-31.142 -11.554,-27.186C-17.351,-23.23 -18.764,-20.582 -19.103,-19.426C-19.254,-18.913 -19.496,-18.433 -19.83,-18.017C-28.563,-7.146 -21.819,4.17 -21.819,4.17C-6.728,3.89 4.255,-4.022 4.255,-4.022C4.255,-4.022 15.625,-11.366 21.387,-25.317C21.387,-25.317 13.306,-35.721 0,-31.551" style="fill:white;fill-rule:nonzero;"/>
        </g>
        <g transform="matrix(1,0,0,1,242.718,242.401)">
            <path d="M0,4.175C-1.034,3.77 -2.533,3.48 -4.188,4.111C-4.637,4.283 -5.145,4.123 -5.4,3.715C-6.012,2.733 -6.707,0.988 -4.659,0.113C-3.673,-0.308 -2.553,-0.279 -1.558,0.124C-0.491,0.557 0.847,1.393 1.322,2.946C1.57,3.753 0.786,4.483 0,4.175" style="fill:white;fill-rule:nonzero;"/>
        </g>
        <g transform="matrix(1,0,0,1,263.31,226.423)">
            <path d="M0,6.099C0,4.988 0.276,3.487 1.467,2.176C1.79,1.82 1.826,1.289 1.539,0.903C0.849,-0.025 -0.524,-1.308 -2.084,0.28C-2.836,1.045 -3.217,2.099 -3.204,3.172C-3.19,4.323 -2.899,5.874 -1.627,6.882C-0.965,7.407 0,6.943 0,6.099" style="fill:white;fill-rule:nonzero;"/>
        </g>
        <g opacity="0.3">
            <g transform="matrix(1,0,0,1,293.769,283.937)">
                <path d="M0,-55.377L-0.001,-55.379L-0.004,-55.379C-0.004,-55.379 -1.359,-51.584 -4.973,-48.276C-5.744,-47.57 -5.467,-46.282 -4.475,-45.953C-3.991,-45.792 -3.488,-45.597 -3.008,-45.363C-2.147,-44.944 -1.677,-43.995 -1.839,-43.051C-2.614,-38.515 -6.105,-24.313 -20.303,-14.591C-34.501,-4.868 -49.004,-6.749 -53.514,-7.666C-54.453,-7.857 -55.167,-8.637 -55.247,-9.592C-55.291,-10.124 -55.291,-10.664 -55.266,-11.173C-55.214,-12.217 -56.315,-12.941 -57.252,-12.477C-61.643,-10.303 -65.671,-10.413 -65.671,-10.413L-65.672,-10.41L-65.671,-10.408C-63.061,-8.36 -58.736,-7.917 -58.736,-7.917C-58.995,-6.768 -58.905,-5.649 -58.774,-4.883C-58.662,-4.239 -58.288,-3.661 -57.728,-3.314C-52.386,0.002 -43.753,-2.383 -43.753,-2.383C-28.662,-2.665 -17.677,-10.575 -17.677,-10.575C-17.677,-10.575 -17.649,-10.595 -17.593,-10.633C-17.537,-10.671 -17.508,-10.691 -17.508,-10.691C-17.508,-10.691 -6.162,-18.072 -0.443,-32.041C-0.443,-32.041 4.903,-39.227 3.742,-45.407C3.622,-46.054 3.218,-46.612 2.657,-46.949C1.99,-47.348 0.98,-47.837 -0.185,-48.011C-0.185,-48.011 0.966,-52.204 0,-55.377" style="fill:rgb(0,0,114);fill-rule:nonzero;"/>
            </g>
        </g>
        <g transform="matrix(1,0,0,1,238.465,232.121)">
            <path d="M0,-13.89C-1.041,-13.18 -2.019,-12.457 -2.936,-11.725C-2.936,-11.725 3.716,-2.089 10.041,1.706C10.44,1.945 10.941,1.603 10.863,1.144C9.635,-6.128 3.086,-15.835 3.086,-15.835C2.07,-15.248 1.041,-14.6 0,-13.89" style="fill:rgb(249,99,40);fill-rule:nonzero;"/>
        </g>
        <g transform="matrix(-0.934625,0.355634,0.355634,0.934625,237.011,232.155)">
            <path d="M-0.599,-10.749C-0.616,-10.592 -1.282,-4.37 -1.301,0.42C-1.302,0.799 -0.812,0.951 -0.599,0.636C0.562,-1.079 2.866,-4.83 3.772,-8.786C2.423,-9.498 0.969,-10.156 -0.599,-10.749" style="fill:rgb(249,99,40);fill-rule:nonzero;"/>
        </g>
        <g transform="matrix(-0.671794,0.740738,0.740738,0.671794,253.077,217.333)">
            <path d="M4.77,-8.472C4.788,-8.315 5.454,-2.093 5.472,2.697C5.473,3.075 4.982,3.227 4.77,2.913C3.609,1.198 1.304,-2.553 0.399,-6.509C1.749,-7.221 3.202,-7.879 4.77,-8.472" style="fill:rgb(249,99,40);fill-rule:nonzero;"/>
        </g>
        <g transform="matrix(1,0,0,1,232.063,265.723)">
            <path d="M0,-5.455C-4.703,-1.531 -5.408,0.401 -5.431,0.461C-5.524,-0.076 -5.627,-0.635 -5.745,-1.212C-5.843,-1.692 -6.055,-2.369 -6.334,-3.216C-4.205,-5.4 -1.46,-5.827 -0.173,-5.902C0.07,-5.916 0.187,-5.611 0,-5.455" style="fill:rgb(249,99,40);fill-rule:nonzero;"/>
        </g>
        <g transform="matrix(0.13141,-0.991328,-0.991328,-0.13141,226.043,255.318)">
            <path d="M-1.343,-2.604C-2.402,-0.306 -4.135,0.729 -4.208,0.77C-3.336,1.169 -2.379,1.588 -1.343,2C-0.313,-0.287 -0.598,-1.843 -0.877,-2.593C-0.955,-2.804 -1.249,-2.809 -1.343,-2.604" style="fill:rgb(249,99,40);fill-rule:nonzero;"/>
        </g>
        <g transform="matrix(1,0,0,1,279.944,222.625)">
            <path d="M0,4.965C5.368,2.016 7.424,2.063 7.488,2.063C7.022,1.781 6.539,1.481 6.045,1.161C5.634,0.895 5.081,0.451 4.394,-0.117C1.584,1.07 0.185,3.47 -0.353,4.641C-0.454,4.862 -0.213,5.082 0,4.965" style="fill:rgb(249,99,40);fill-rule:nonzero;"/>
        </g>
        <g transform="matrix(0.971043,0.238906,0.238906,-0.971043,277.741,222.603)">
            <path d="M0.557,-0.302C1.616,1.997 3.35,3.031 3.422,3.072C2.55,3.473 1.593,3.89 0.557,4.303C-0.471,2.016 -0.187,0.459 0.092,-0.291C0.17,-0.502 0.463,-0.506 0.557,-0.302" style="fill:rgb(249,99,40);fill-rule:nonzero;"/>
        </g>
        <g transform="matrix(1,0,0,1,293.352,235.263)">
            <path d="M0,1.663C-0.131,1.639 -0.314,1.592 -0.477,1.548L-0.99,1.399C-1.165,1.342 -1.34,1.301 -1.526,1.235C-1.711,1.17 -1.904,1.09 -2.129,0.974C-1.992,0.765 -1.818,0.606 -1.632,0.491C-1.446,0.373 -1.248,0.295 -1.049,0.221C-0.848,0.153 -0.644,0.097 -0.438,0.059C-0.226,0.026 -0.035,0 0.207,0.018L0,1.663Z" style="fill:rgb(0,0,114);fill-rule:nonzero;"/>
        </g>
        <g transform="matrix(1,0,0,1,292.41,246.914)">
            <path d="M0,4.978L0.39,3.675C0.518,3.237 0.643,2.796 0.763,2.354C0.884,1.912 0.995,1.467 1.098,1.02C1.202,0.571 1.311,0.124 1.404,-0.347C1.572,0.105 1.654,0.583 1.705,1.057C1.755,1.532 1.766,2.007 1.774,2.482C1.78,2.957 1.765,3.43 1.74,3.902C1.719,4.378 1.681,4.842 1.621,5.325L0,4.978Z" style="fill:rgb(0,0,114);fill-rule:nonzero;"/>
        </g>
        <g transform="matrix(1,0,0,1,234.263,274.33)">
            <path d="M0,1.42C0.072,1.189 0.165,1.02 0.273,0.835C0.383,0.656 0.51,0.487 0.646,0.325C0.788,0.166 0.933,0.011 1.11,-0.12C1.285,-0.251 1.497,-0.355 1.742,-0.407C1.768,-0.154 1.772,0.054 1.765,0.251C1.759,0.447 1.733,0.625 1.723,0.809L1.674,1.341C1.656,1.509 1.633,1.697 1.607,1.827L0,1.42Z" style="fill:rgb(0,0,114);fill-rule:nonzero;"/>
        </g>
        <g transform="matrix(1,0,0,1,249.881,280.101)">
            <path d="M0,2.271C-0.471,2.15 -0.917,2.016 -1.368,1.863C-1.817,1.713 -2.262,1.554 -2.702,1.375C-3.142,1.195 -3.58,1.012 -4.004,0.792C-4.426,0.572 -4.842,0.321 -5.201,0C-4.729,0.085 -4.272,0.146 -3.817,0.213C-3.363,0.28 -2.908,0.339 -2.453,0.388C-1.997,0.437 -1.542,0.482 -1.086,0.522L0.269,0.635L0,2.271Z" style="fill:rgb(0,0,114);fill-rule:nonzero;"/>
        </g>
        <g transform="matrix(1,0,0,1,240.435,251.667)">
            <path d="M0,7.231C-0.06,6.905 -0.081,6.607 -0.076,6.294C-0.079,5.983 -0.04,5.676 0.002,5.365C0.101,4.746 0.3,4.135 0.583,3.554C0.863,2.969 1.254,2.431 1.708,1.953C1.825,1.837 1.942,1.72 2.063,1.607C2.18,1.489 2.319,1.399 2.447,1.295C2.579,1.197 2.705,1.086 2.846,1.002L3.268,0.749C3.834,0.423 4.409,0.19 5.032,-0.006C5.659,-0.174 6.312,-0.304 6.989,-0.281C7.661,-0.272 8.344,-0.15 8.971,0.117C9.284,0.252 9.585,0.41 9.858,0.614C9.996,0.713 10.127,0.822 10.254,0.938C10.315,0.998 10.376,1.057 10.436,1.124C10.466,1.158 10.494,1.187 10.526,1.225L10.625,1.348C10.857,1.586 10.852,1.967 10.615,2.199C10.377,2.431 9.996,2.426 9.764,2.189C9.758,2.194 9.727,2.177 9.705,2.168L9.63,2.134C9.58,2.109 9.523,2.088 9.468,2.066C9.361,2.02 9.249,1.978 9.135,1.944C9.078,1.928 9.022,1.911 8.966,1.892L8.794,1.85C8.683,1.817 8.564,1.803 8.45,1.781C7.989,1.705 7.524,1.701 7.059,1.75C6.594,1.79 6.126,1.914 5.659,2.054L5.309,2.178C5.192,2.216 5.076,2.26 4.96,2.314C4.733,2.417 4.483,2.505 4.279,2.623C3.416,3.057 2.653,3.651 2.048,4.444C1.741,4.837 1.468,5.272 1.232,5.742C0.994,6.207 0.8,6.729 0.639,7.232L0.627,7.271C0.573,7.441 0.391,7.535 0.22,7.481C0.102,7.444 0.021,7.345 0,7.231" style="fill:rgb(0,0,114);fill-rule:nonzero;"/>
        </g>
        <g transform="matrix(1,0,0,1,275.339,241.618)">
            <path d="M0,-6.182C-0.527,-6.214 -1.083,-6.222 -1.603,-6.168C-2.127,-6.118 -2.631,-6.021 -3.108,-5.877C-4.067,-5.6 -4.896,-5.102 -5.613,-4.455C-5.797,-4.308 -5.969,-4.106 -6.148,-3.932C-6.24,-3.843 -6.322,-3.751 -6.4,-3.655L-6.642,-3.374C-6.941,-2.99 -7.227,-2.598 -7.432,-2.179C-7.646,-1.763 -7.81,-1.328 -7.906,-0.871C-7.927,-0.757 -7.957,-0.641 -7.966,-0.525L-7.989,-0.349C-7.992,-0.291 -7.996,-0.232 -8.002,-0.173C-8.012,-0.054 -8.013,0.065 -8.008,0.182C-8.008,0.241 -8.008,0.301 -8.004,0.357L-7.999,0.44C-7.998,0.463 -7.994,0.499 -8.001,0.502C-7.863,0.804 -7.997,1.161 -8.299,1.299C-8.602,1.436 -8.958,1.303 -9.096,1L-9.175,0.863C-9.199,0.82 -9.216,0.784 -9.237,0.743C-9.278,0.664 -9.311,0.585 -9.345,0.506C-9.407,0.346 -9.461,0.185 -9.503,0.02C-9.595,-0.308 -9.633,-0.646 -9.646,-0.986C-9.668,-1.668 -9.534,-2.349 -9.301,-2.978C-9.077,-3.618 -8.72,-4.179 -8.337,-4.704C-7.928,-5.213 -7.503,-5.665 -6.994,-6.075L-6.606,-6.377C-6.477,-6.478 -6.328,-6.556 -6.189,-6.644C-6.045,-6.725 -5.911,-6.822 -5.759,-6.889C-5.61,-6.961 -5.458,-7.027 -5.308,-7.095C-4.698,-7.344 -4.055,-7.515 -3.409,-7.564C-2.765,-7.618 -2.123,-7.583 -1.511,-7.451C-1.205,-7.378 -0.905,-7.303 -0.615,-7.188C-0.322,-7.08 -0.052,-6.952 0.23,-6.779C0.383,-6.685 0.43,-6.485 0.337,-6.333C0.272,-6.228 0.157,-6.173 0.041,-6.179L0,-6.182Z" style="fill:rgb(0,0,114);fill-rule:nonzero;"/>
        </g>
        <g opacity="0.5">
            <g transform="matrix(1,0,0,1,285.238,251.852)">
                <path d="M0,-28.615L-0.081,-28.509C-4.422,-31.841 -12.424,-37.533 -22.699,-38.321C-29.262,-38.826 -36.875,-37.212 -45.297,-31.464C-46.336,-30.753 -47.316,-30.031 -48.231,-29.3C-48.854,-28.802 -49.447,-28.303 -50.014,-27.801L-50.013,-27.799C-51.267,-26.687 -52.391,-25.555 -53.399,-24.408C-63.037,-13.456 -61.9,-1.319 -59.876,6.692C-59.605,7.771 -59.316,8.775 -59.035,9.695L-59.038,9.694C-58.71,10.763 -59.096,11.588 -58.987,12.369C-59.1,11.918 -59.282,11.343 -59.508,10.655C-59.792,9.785 -60.146,8.739 -60.516,7.536L-60.513,7.537C-60.794,6.618 -61.082,5.614 -61.354,4.534C-63.377,-3.477 -64.514,-15.613 -54.876,-26.566C-53.868,-27.713 -52.744,-28.844 -51.491,-29.957L-51.492,-29.958C-50.924,-30.46 -50.331,-30.959 -49.708,-31.457C-48.794,-32.189 -47.814,-32.91 -46.774,-33.622C-38.353,-39.37 -30.739,-40.984 -24.176,-40.478C-11.976,-39.544 -3.4,-31.281 0,-28.615" style="fill:white;fill-rule:nonzero;"/>
            </g>
        </g>
        <g transform="matrix(1,0,0,1,275.622,213.93)">
            <path d="M0,58.748C0.006,58.744 0.012,58.74 0.018,58.736C0.134,58.661 11.245,51.354 16.834,37.819C16.861,37.755 16.895,37.694 16.937,37.638C16.988,37.57 22.072,30.684 21.011,24.933C20.936,24.526 20.684,24.167 20.319,23.947C19.737,23.597 18.825,23.145 17.78,22.984C17.546,22.948 17.338,22.814 17.21,22.615C17.081,22.416 17.044,22.171 17.108,21.943C17.119,21.903 18.196,17.94 17.318,15.039C17.215,14.698 16.974,14.419 16.655,14.273C15.403,13.701 12.863,12.456 9.917,10.552C9.38,10.204 8.656,9.605 7.74,8.847C1.548,3.724 -14.899,-9.884 -36.689,4.987C-36.711,5.002 -36.733,5.017 -36.754,5.031C-58.466,19.899 -51.799,40.141 -49.287,47.767C-48.915,48.897 -48.621,49.789 -48.493,50.416C-47.793,53.854 -47.56,56.673 -47.483,58.047C-47.464,58.396 -47.292,58.724 -47.012,58.944C-44.622,60.825 -40.547,61.259 -40.506,61.264C-40.271,61.288 -40.056,61.411 -39.918,61.604C-39.779,61.796 -39.73,62.038 -39.781,62.27C-40.012,63.301 -39.924,64.316 -39.81,64.985C-39.738,65.404 -39.495,65.77 -39.144,65.988C-34.176,69.073 -25.911,66.848 -25.828,66.825C-25.761,66.806 -25.692,66.796 -25.623,66.795C-10.983,66.523 -0.124,58.839 -0.016,58.759C-0.01,58.755 -0.005,58.752 0,58.748M1.216,59.929C1.078,60.024 0.983,60.086 0.936,60.117C0.274,60.586 -10.519,68.139 -25.49,68.451C-26.552,68.729 -34.689,70.705 -40.019,67.396C-40.773,66.929 -41.292,66.152 -41.444,65.265C-41.552,64.636 -41.639,63.754 -41.541,62.79C-43.001,62.544 -45.977,61.868 -48.037,60.247C-48.691,59.732 -49.093,58.964 -49.139,58.14C-49.213,56.81 -49.439,54.082 -50.118,50.747C-50.226,50.215 -50.507,49.364 -50.862,48.286C-53.48,40.337 -60.428,19.233 -37.692,3.664C-37.669,3.648 -37.648,3.634 -37.624,3.618C-14.804,-11.957 2.342,2.229 8.797,7.57C9.671,8.293 10.362,8.865 10.817,9.159C13.676,11.007 16.134,12.212 17.345,12.765C18.096,13.109 18.665,13.763 18.906,14.559C19.665,17.068 19.209,20.087 18.906,21.535C19.839,21.795 20.629,22.198 21.175,22.527C21.946,22.992 22.48,23.759 22.641,24.632C23.78,30.8 18.974,37.658 18.328,38.546C12.976,51.424 3.096,58.642 1.216,59.929" style="fill:rgb(0,0,114);fill-rule:nonzero;"/>
        </g>
        <g opacity="0.3">
            <g transform="matrix(1,0,0,1,271.076,269.575)">
                <path d="M0,-22.339C-1.734,-13.787 -7.43,-18.675 -7.43,-18.675L-9.505,-17.243L-11.581,-15.811C-11.581,-15.811 -9.033,-8.751 -17.643,-10.165C-17.643,-10.165 -17.668,-5.932 -13.458,-4.88C-13.458,-4.88 -7.938,0 -0.94,-4.829C6.059,-9.658 3.456,-16.551 3.456,-16.551C3.966,-20.86 0,-22.339 0,-22.339" style="fill:rgb(0,0,114);fill-rule:nonzero;"/>
            </g>
        </g>
        <g transform="matrix(1,0,0,1,259.68,253.824)">
            <path d="M0,-4.231C0,-4.231 -1.818,-3.004 -2.857,-1.62C-3.305,-1.023 -3.174,-0.177 -2.575,0.27C-1.494,1.077 0.517,1.951 3.056,0.198C5.596,-1.554 5.493,-3.744 5.122,-5.042C4.917,-5.759 4.172,-6.182 3.455,-5.975C1.792,-5.495 0,-4.231 0,-4.231" style="fill:rgb(0,0,114);fill-rule:nonzero;"/>
        </g>
        <g transform="matrix(1,0,0,1,262.827,251.292)">
            <path d="M0,1.311L0.145,1.465L0.315,1.634C0.433,1.745 0.555,1.854 0.677,1.96C0.923,2.174 1.186,2.364 1.451,2.541C1.984,2.891 2.553,3.15 3.128,3.292C4.28,3.577 5.471,3.335 6.567,2.662C6.703,2.578 6.841,2.498 6.97,2.4C7.104,2.308 7.234,2.214 7.353,2.111C7.608,1.919 7.823,1.702 8.029,1.481C8.221,1.253 8.389,1.015 8.522,0.762C8.649,0.508 8.737,0.242 8.797,-0.034C9.044,-1.138 8.674,-2.485 8.091,-3.791L8.082,-3.811C8.024,-3.94 8.082,-4.091 8.211,-4.149C8.294,-4.186 8.387,-4.174 8.458,-4.127C8.802,-3.895 9.08,-3.624 9.344,-3.319C9.605,-3.015 9.834,-2.677 10.023,-2.308C10.401,-1.575 10.612,-0.688 10.511,0.216C10.465,0.665 10.338,1.108 10.162,1.523C9.978,1.935 9.744,2.313 9.481,2.662C9.21,2.998 8.92,3.318 8.604,3.589C8.447,3.73 8.284,3.856 8.119,3.979C7.958,4.107 7.784,4.219 7.611,4.333C7.265,4.561 6.889,4.757 6.501,4.934C6.103,5.097 5.692,5.24 5.257,5.319C4.397,5.497 3.475,5.471 2.631,5.241C2.209,5.128 1.803,4.974 1.419,4.788C1.036,4.598 0.68,4.374 0.343,4.13C0.006,3.886 -0.304,3.614 -0.595,3.326C-0.74,3.182 -0.88,3.032 -1.013,2.875C-1.08,2.796 -1.146,2.717 -1.211,2.634C-1.279,2.547 -1.332,2.478 -1.414,2.362C-1.695,1.966 -1.602,1.417 -1.206,1.136C-0.843,0.879 -0.353,0.935 -0.057,1.25L0,1.311Z" style="fill:rgb(0,0,114);fill-rule:nonzero;"/>
        </g>
        <g transform="matrix(1,0,0,1,262.863,262.701)">
            <path d="M0,-10.047C0.079,-9.929 0.125,-9.855 0.182,-9.76C0.236,-9.67 0.287,-9.58 0.337,-9.49C0.436,-9.31 0.527,-9.126 0.61,-8.939C0.776,-8.564 0.921,-8.178 1.028,-7.776C1.137,-7.375 1.22,-6.962 1.262,-6.537C1.3,-6.113 1.3,-5.678 1.255,-5.243C1.171,-4.372 0.868,-3.501 0.396,-2.76C0.169,-2.382 -0.111,-2.049 -0.404,-1.734C-0.708,-1.434 -1.025,-1.152 -1.361,-0.91C-1.529,-0.789 -1.695,-0.665 -1.872,-0.56C-2.045,-0.449 -2.221,-0.342 -2.409,-0.246C-2.774,-0.046 -3.176,0.111 -3.587,0.246C-4.006,0.368 -4.443,0.452 -4.893,0.478C-5.344,0.495 -5.802,0.457 -6.239,0.341C-7.12,0.114 -7.875,-0.398 -8.425,-1.012C-8.704,-1.319 -8.938,-1.653 -9.13,-2.005C-9.321,-2.36 -9.476,-2.717 -9.571,-3.121C-9.603,-3.258 -9.518,-3.395 -9.38,-3.428C-9.292,-3.448 -9.203,-3.42 -9.142,-3.36L-9.126,-3.345C-8.112,-2.335 -6.984,-1.512 -5.865,-1.351C-5.585,-1.309 -5.305,-1.297 -5.022,-1.325C-4.739,-1.36 -4.456,-1.432 -4.175,-1.531C-3.895,-1.645 -3.616,-1.769 -3.346,-1.939C-3.208,-2.014 -3.074,-2.103 -2.941,-2.195C-2.803,-2.281 -2.679,-2.382 -2.552,-2.479C-1.534,-3.265 -0.885,-4.292 -0.743,-5.47C-0.672,-6.059 -0.712,-6.682 -0.85,-7.305C-0.922,-7.616 -1.006,-7.929 -1.118,-8.234C-1.175,-8.387 -1.233,-8.539 -1.295,-8.688L-1.392,-8.908L-1.485,-9.098L-1.521,-9.172C-1.734,-9.609 -1.552,-10.135 -1.115,-10.348C-0.715,-10.542 -0.241,-10.406 0,-10.047" style="fill:rgb(0,0,114);fill-rule:nonzero;"/>
        </g>
        <g transform="matrix(1,0,0,1,271.972,265.834)">
            <path d="M0,-13.026C0,-13.026 1.165,-10.806 1.115,-8.121C1.076,-6.028 0.3,-3.651 -2.346,-1.826C-4.991,0 -7.489,-0.118 -9.459,-0.825C-11.987,-1.73 -13.649,-3.608 -13.649,-3.608C-13.649,-3.608 -6.514,-5.373 -9.718,-12.511C-4.182,-6.982 0,-13.026 0,-13.026" style="fill:rgb(0,0,114);fill-rule:nonzero;"/>
        </g>
        <g transform="matrix(1,0,0,1,273.087,264.517)">
            <path d="M0,-6.805C-0.039,-4.712 -0.815,-2.335 -3.46,-0.51C-6.106,1.316 -8.604,1.198 -10.574,0.491C-10.574,0.491 -9.24,-8.121 0,-6.805" style="fill:rgb(255,74,139);fill-rule:nonzero;"/>
        </g>
        <g transform="matrix(1,0,0,1,259.955,258.63)">
            <path d="M0,3.916C1.656,5.266 5.215,7.36 9.144,4.67C9.153,4.664 9.161,4.658 9.171,4.652C13.128,1.921 12.423,-2.159 11.741,-4.186C10.85,-3.335 9.401,-2.288 7.538,-2.119C6.32,-2.009 5.114,-2.284 3.932,-2.94C4.126,-1.602 3.955,-0.377 3.42,0.722C2.602,2.401 1.112,3.385 0,3.916M10.139,6.125C3.551,10.637 -2.234,4.244 -2.291,4.179C-2.496,3.948 -2.565,3.627 -2.473,3.333C-2.381,3.038 -2.142,2.813 -1.843,2.739C-1.819,2.733 0.825,2.041 1.84,-0.059C2.476,-1.375 2.36,-3.019 1.495,-4.946C1.321,-5.334 1.448,-5.791 1.798,-6.033C1.799,-6.033 1.8,-6.034 1.801,-6.035C2.15,-6.274 2.621,-6.231 2.921,-5.931C4.416,-4.438 5.912,-3.746 7.368,-3.873C9.692,-4.077 11.277,-6.304 11.293,-6.326C11.469,-6.578 11.765,-6.721 12.071,-6.701C12.378,-6.681 12.653,-6.504 12.796,-6.232C12.837,-6.155 16.773,1.547 10.172,6.102C10.161,6.11 10.149,6.118 10.139,6.125" style="fill:rgb(0,0,114);fill-rule:nonzero;"/>
        </g>
        <g opacity="0.3">
            <g transform="matrix(-0.62047,-0.78423,-0.78423,0.62047,258.304,251.423)">
                <path d="M-1.122,-2.321C-1.426,-2.321 -1.673,-1.68 -1.672,-0.889C-1.673,-0.099 -1.426,0.543 -1.122,0.543C-0.819,0.543 -0.571,-0.098 -0.571,-0.888C-0.571,-1.68 -0.818,-2.32 -1.122,-2.321" style="fill:white;fill-rule:nonzero;"/>
            </g>
        </g>
        <g transform="matrix(1,0,0,1,275.279,290.356)">
            <path d="M0,2.386C-5.996,12.056 -12.523,6.044 -12.523,6.044C-12.523,6.044 -13.078,6.262 -13.907,6.605C-15.051,7.079 -16.718,7.794 -18.162,8.514C-20.651,9.754 -24.737,10.696 -29.143,4.53C-33.552,-1.634 -30.114,-8.035 -30.114,-8.035C-30.114,-8.035 -30.111,-8.034 -30.105,-8.035C-28.051,-8.094 -25.858,-8.756 -25.858,-8.756L-21.973,-8.975C-22.1,-8.048 -22.098,-6.895 -22.068,-5.991C-22.042,-5.187 -21.991,-4.581 -21.986,-4.51L-21.986,-4.501C-21.333,-4.985 -20.656,-5.42 -19.966,-5.812C-19.573,-6.035 -19.175,-6.241 -18.772,-6.433C-17.636,-6.978 -16.468,-7.405 -15.296,-7.725C-14.558,-7.928 -13.815,-8.087 -13.077,-8.206C-3.952,-9.67 4.493,-4.864 0,2.386" style="fill:rgb(250,155,39);fill-rule:nonzero;"/>
        </g>
        <g transform="matrix(-0.290307,-0.956933,-0.956933,0.290307,267.03,284.238)">
            <path d="M-10.532,-5.425C-18.045,3.12 -10.397,7.621 -10.397,7.621C-10.397,7.621 -10.444,8.215 -10.532,9.108C-2.396,12.012 1.519,8.185 3.4,4.014C2.152,-5.143 -4.898,-11.829 -10.532,-5.425" style="fill:white;fill-rule:nonzero;"/>
        </g>
        <g transform="matrix(-0.861369,-0.507979,-0.507979,0.861369,254.934,287.114)">
            <path d="M-2.071,-6.427C-1.994,-5.188 -2.033,-3.188 -2.498,-0.135C-2.533,0.106 -2.243,0.257 -2.071,0.087C-1.426,-0.553 -0.358,-1.803 0.267,-3.549C-0.436,-4.595 -1.224,-5.556 -2.071,-6.427" style="fill:rgb(249,99,40);fill-rule:nonzero;"/>
        </g>
        <g transform="matrix(1,0,0,1,255.313,288.192)">
            <path d="M0,-3.649C-0.479,-2.856 -1.083,-1.686 -1.764,0.012C-1.831,0.179 -2.076,0.168 -2.122,-0.008C-2.317,-0.758 -2.569,-2.233 -2.103,-3.828C-2.075,-2.97 -2.02,-2.338 -2.02,-2.338C-1.367,-2.822 -0.69,-3.257 0,-3.649" style="fill:rgb(249,99,40);fill-rule:nonzero;"/>
        </g>
        <g opacity="0.3">
            <g transform="matrix(1,0,0,1,274.45,298.639)">
                <path d="M0,-8.793C-5.012,-0.71 -10.395,-3.585 -12.027,-4.746C-12.356,-4.98 -12.779,-5.034 -13.154,-4.883C-13.364,-4.797 -13.619,-4.693 -13.907,-4.574C-15.051,-4.1 -16.718,-3.385 -18.162,-2.665C-20.651,-1.425 -24.737,-0.483 -29.143,-6.649C-29.684,-7.404 -30.105,-8.164 -30.43,-8.914C-30.186,-7.276 -29.568,-5.505 -28.315,-3.753C-23.908,2.413 -19.823,1.471 -17.333,0.231C-15.89,-0.489 -14.223,-1.204 -13.079,-1.678C-12.249,-2.021 -11.694,-2.24 -11.694,-2.24C-11.694,-2.24 -5.167,3.773 0.829,-5.897C2.436,-8.492 2.387,-10.773 1.243,-12.566C1.225,-11.409 0.837,-10.144 0,-8.793" style="fill:rgb(0,0,114);fill-rule:nonzero;"/>
            </g>
        </g>
        <g opacity="0.3">
            <g transform="matrix(1,0,0,1,253.306,287.944)">
                <path d="M0,-6.563C-0.127,-5.636 -0.125,-4.483 -0.096,-3.58C-0.07,-2.775 -0.019,-2.169 -0.013,-2.098L-0.013,-2.089L-3.255,0C-2.723,-4.846 -7.9,-5.592 -8.133,-5.623C-6.078,-5.682 -3.885,-6.344 -3.885,-6.344L0,-6.563Z" style="fill:rgb(0,0,114);fill-rule:nonzero;"/>
            </g>
        </g>
        <g transform="matrix(1,0,0,1,245.7,299.217)">
            <path d="M0,-16.092C-0.635,-14.643 -2.368,-9.677 1.109,-4.813C5.208,0.921 8.744,0.058 11.048,-1.091C13.542,-2.334 16.624,-3.539 16.754,-3.59C17.049,-3.705 17.384,-3.642 17.617,-3.428C17.637,-3.41 19.82,-1.459 22.636,-1.853C24.889,-2.169 26.988,-3.871 28.873,-6.913C30.529,-9.584 30.35,-11.968 28.355,-13.805C24.407,-17.441 14.903,-17.742 8.087,-12.697C7.84,-12.516 7.526,-12.484 7.253,-12.607C6.979,-12.73 6.794,-12.992 6.767,-13.291C6.759,-13.384 6.599,-15.249 6.693,-16.955L3.862,-16.795C3.439,-16.674 1.748,-16.214 0,-16.092M26.267,-1.572C25.179,-0.827 24.036,-0.371 22.842,-0.208C20.031,0.176 17.803,-1.201 16.911,-1.868C15.961,-1.486 13.668,-0.544 11.787,0.393C7.387,2.587 3.341,1.16 -0.24,-3.849C-4.894,-10.359 -1.416,-17.008 -1.266,-17.288C-1.125,-17.549 -0.856,-17.716 -0.559,-17.724C1.359,-17.779 3.46,-18.405 3.481,-18.411C3.544,-18.43 3.609,-18.442 3.674,-18.445L7.559,-18.665C7.806,-18.679 8.046,-18.582 8.214,-18.4C8.383,-18.218 8.46,-17.97 8.427,-17.725C8.308,-16.851 8.309,-15.746 8.338,-14.876C11.602,-16.935 15.482,-18.091 19.421,-18.156C23.577,-18.225 27.242,-17.084 29.478,-15.025C32.057,-12.65 32.35,-9.375 30.282,-6.039C29.05,-4.051 27.707,-2.558 26.267,-1.572" style="fill:rgb(0,0,114);fill-rule:nonzero;"/>
        </g>
        <g transform="matrix(1,0,0,1,253.694,286.425)">
            <path d="M0,0.155C-0.253,0.306 -0.538,0.446 -0.819,0.575C-1.101,0.707 -1.39,0.828 -1.681,0.949C-1.974,1.068 -2.266,1.188 -2.567,1.301C-2.865,1.418 -3.166,1.533 -3.486,1.641L-3.49,1.642C-3.557,1.665 -3.63,1.628 -3.653,1.561C-3.665,1.525 -3.66,1.488 -3.643,1.457C-3.308,0.854 -2.853,0.351 -2.378,-0.11C-2.137,-0.338 -1.889,-0.555 -1.627,-0.754C-1.365,-0.955 -1.102,-1.138 -0.801,-1.297C-0.395,-1.51 0.106,-1.355 0.319,-0.95C0.526,-0.558 0.387,-0.077 0.013,0.147L0,0.155Z" style="fill:rgb(0,0,114);fill-rule:nonzero;"/>
        </g>
        <g transform="matrix(1,0,0,1,271.617,293.28)">
            <path d="M0,3.347C-0.013,3.351 -0.042,3.319 -0.063,3.299C-0.084,3.276 -0.111,3.252 -0.132,3.226C-0.175,3.175 -0.222,3.122 -0.264,3.068C-0.35,2.958 -0.429,2.842 -0.509,2.724C-0.666,2.487 -0.807,2.227 -0.967,1.971C-1.126,1.715 -1.289,1.451 -1.47,1.19C-1.643,0.919 -1.835,0.657 -2.02,0.357L-2.026,0.348C-2.092,0.242 -2.058,0.102 -1.952,0.036C-1.902,0.005 -1.845,-0.004 -1.792,0.006C-1.435,0.07 -1.093,0.185 -0.765,0.333C-0.436,0.481 -0.128,0.671 0.17,0.881C0.463,1.095 0.744,1.336 0.977,1.622C1.094,1.764 1.198,1.92 1.288,2.085C1.333,2.168 1.372,2.254 1.409,2.346C1.429,2.39 1.443,2.438 1.46,2.487C1.477,2.539 1.486,2.579 1.508,2.657C1.537,2.759 1.48,2.864 1.38,2.897L0,3.347Z" style="fill:rgb(0,0,114);fill-rule:nonzero;"/>
        </g>
        <g transform="matrix(1,0,0,1,275.534,288.653)">
            <path d="M0,2.959C-0.012,2.966 -0.046,2.939 -0.071,2.923C-0.096,2.904 -0.126,2.886 -0.151,2.864C-0.203,2.822 -0.259,2.778 -0.31,2.732C-0.414,2.639 -0.513,2.54 -0.613,2.438C-0.81,2.232 -0.995,2.002 -1.198,1.779C-1.401,1.556 -1.609,1.325 -1.834,1.101C-2.052,0.865 -2.289,0.643 -2.525,0.381L-2.532,0.373C-2.616,0.28 -2.608,0.137 -2.515,0.053C-2.472,0.014 -2.418,-0.006 -2.364,-0.006C-2.001,-0.007 -1.644,0.045 -1.294,0.131C-0.944,0.218 -0.607,0.349 -0.276,0.502C0.051,0.661 0.37,0.847 0.651,1.087C0.792,1.205 0.922,1.339 1.04,1.486C1.1,1.56 1.154,1.637 1.206,1.721C1.234,1.761 1.256,1.805 1.281,1.851C1.308,1.898 1.323,1.936 1.359,2.009C1.406,2.104 1.369,2.218 1.277,2.268L0,2.959Z" style="fill:rgb(0,0,114);fill-rule:nonzero;"/>
        </g>
        <g transform="matrix(1,0,0,1,302.703,213.297)">
            <path d="M0,47.69C0,47.69 -6.442,42.257 -10.716,41.937C-10.716,41.937 -9.535,40.306 -8.373,37.793C-8.012,37.018 -7.652,36.157 -7.331,35.235C-6.731,33.515 -6.259,31.578 -6.144,29.568C-6.081,28.484 -6.123,27.378 -6.305,26.273C-6.475,25.232 -6.771,24.194 -7.219,23.176C-7.543,22.437 -7.95,21.708 -8.449,20.997C-8.449,20.997 -10.796,21.282 -13.077,19.081C-13.647,18.53 -14.211,17.825 -14.735,16.92C-19.017,9.521 -10.125,0 -0.96,6.89C0.27,7.814 1.536,9.086 2.824,10.772C12.677,23.69 7.573,40.227 0,47.69" style="fill:rgb(250,155,39);fill-rule:nonzero;"/>
        </g>
        <g transform="matrix(1,0,0,1,301.743,227.62)">
            <path d="M0,-7.433C3.922,6.496 -7.489,6.673 -7.489,6.673C-7.489,6.673 -10.799,6.89 -13.775,2.597C-18.632,-4.408 -9.165,-14.323 0,-7.433" style="fill:white;fill-rule:nonzero;"/>
        </g>
        <g transform="matrix(0.625474,-0.780245,-0.780245,-0.625474,300.12,249.424)">
            <path d="M-2.274,-1.371C-3.053,-0.59 -4.454,1.097 -4.922,3.476C-4.092,3.679 -3.195,3.937 -2.274,4.263C-2.293,3.019 -2.201,1.262 -1.848,-1.155C-1.815,-1.396 -2.103,-1.545 -2.274,-1.371" style="fill:rgb(249,99,40);fill-rule:nonzero;"/>
        </g>
        <g transform="matrix(0.627934,-0.778266,-0.778266,-0.627934,301.876,241.017)">
            <path d="M-2.314,-1.068C-3.005,-0.379 -4.184,1.017 -4.777,2.977C-3.894,3.61 -3.059,4.336 -2.314,5.171C-2.372,3.916 -2.311,1.989 -1.888,-0.851C-1.854,-1.092 -2.142,-1.242 -2.314,-1.068" style="fill:rgb(249,99,40);fill-rule:nonzero;"/>
        </g>
        <g opacity="0.3">
            <g transform="matrix(1,0,0,1,305.527,256.121)">
                <path d="M0,-32.052C-1.288,-33.739 -2.554,-35.01 -3.784,-35.934C-4.285,-36.311 -4.786,-36.636 -5.284,-36.918C-4.532,-36.192 -3.77,-35.335 -3,-34.326C6.853,-21.408 1.749,-4.872 -5.824,2.591C-5.824,2.591 -9.281,-0.322 -12.81,-2.008C-13.247,-1.292 -13.54,-0.887 -13.54,-0.887C-9.266,-0.567 -2.824,4.866 -2.824,4.866C4.75,-2.597 9.853,-19.134 0,-32.052" style="fill:rgb(0,0,114);fill-rule:nonzero;"/>
            </g>
        </g>
        <g opacity="0.3">
            <g transform="matrix(1,0,0,1,302.469,236.474)">
                <path d="M0,-12.668C4.525,-2.044 -6.985,0 -6.985,0C-7.309,-0.739 -7.716,-1.468 -8.215,-2.18C-8.215,-2.18 -10.562,-1.894 -12.843,-4.096C-12.752,-4.086 -12.66,-4.074 -12.566,-4.063C-3.173,-2.896 0,-12.668 0,-12.668" style="fill:rgb(0,0,114);fill-rule:nonzero;"/>
            </g>
        </g>
        <g transform="matrix(1,0,0,1,293.374,223.726)">
            <path d="M0,30.904C3.542,31.795 7.725,34.92 9.265,36.141C15.944,29.043 21.085,13.419 11.493,0.846C6.129,-6.185 0.739,-6.162 -2.517,-3.792C-5.397,-1.698 -7.06,2.649 -4.725,6.019C-2.087,9.827 0.715,9.745 0.833,9.74C1.116,9.727 1.395,9.859 1.558,10.091C4.309,14.012 4.778,19.06 2.913,24.689C2.007,27.424 0.771,29.654 0,30.904M9.797,37.947C9.495,38.154 9.084,38.14 8.795,37.896C8.732,37.843 2.506,32.631 -1.449,32.334C-1.749,32.311 -2.013,32.128 -2.139,31.856C-2.266,31.583 -2.235,31.264 -2.059,31.021C-1.961,30.885 5.911,19.781 0.428,11.38C-0.707,11.278 -3.541,10.639 -6.088,6.964C-8.681,3.22 -7.517,-2.207 -3.492,-5.133C-1.322,-6.718 1.357,-7.25 4.023,-6.629C7.133,-5.905 10.089,-3.728 12.812,-0.16C18.637,7.476 18.9,15.545 18.096,20.968C17.138,27.434 14.078,33.746 9.911,37.853C9.875,37.888 9.837,37.919 9.797,37.947" style="fill:rgb(0,0,114);fill-rule:nonzero;"/>
        </g>
        <g transform="matrix(1,0,0,1,294.145,225.905)">
            <path d="M0,7.567C0.106,7.547 0.258,7.514 0.388,7.483L0.797,7.381C1.07,7.308 1.342,7.229 1.611,7.143C2.149,6.97 2.678,6.77 3.185,6.535C4.201,6.07 5.138,5.466 5.887,4.697C6.257,4.311 6.599,3.896 6.854,3.426C7.111,2.959 7.314,2.46 7.464,1.934C7.756,0.877 7.826,-0.274 7.822,-1.485L7.822,-1.488C7.822,-1.602 7.914,-1.694 8.028,-1.695C8.112,-1.695 8.185,-1.644 8.217,-1.571C8.717,-0.427 8.931,0.879 8.764,2.196C8.579,3.508 7.972,4.789 7.087,5.795C6.204,6.809 5.096,7.573 3.927,8.123C3.341,8.399 2.74,8.63 2.124,8.809C1.817,8.903 1.506,8.979 1.193,9.048C1.036,9.082 0.878,9.114 0.718,9.14C0.552,9.166 0.407,9.19 0.215,9.211C-0.24,9.262 -0.65,8.935 -0.701,8.48C-0.75,8.046 -0.455,7.653 -0.033,7.573L0,7.567Z" style="fill:rgb(0,0,114);fill-rule:nonzero;"/>
        </g>
        <g transform="matrix(1,0,0,1,300.835,226.058)">
            <path d="M0,5.207C-0.106,5.171 -0.164,5.149 -0.239,5.119C-0.31,5.089 -0.376,5.058 -0.443,5.027C-0.575,4.962 -0.702,4.895 -0.825,4.82C-1.07,4.672 -1.301,4.507 -1.519,4.328C-1.951,3.968 -2.338,3.56 -2.667,3.113C-2.828,2.887 -2.995,2.667 -3.128,2.425L-3.336,2.071L-3.516,1.701C-3.578,1.58 -3.634,1.456 -3.68,1.327C-3.729,1.199 -3.781,1.074 -3.824,0.946C-3.912,0.689 -3.979,0.424 -4.038,0.161C-4.06,0.062 -3.998,-0.036 -3.899,-0.058C-3.839,-0.072 -3.778,-0.053 -3.735,-0.014L-3.724,-0.004C-3.528,0.178 -3.356,0.369 -3.175,0.549C-2.989,0.727 -2.82,0.91 -2.635,1.079C-2.282,1.429 -1.907,1.744 -1.545,2.057C-1.169,2.356 -0.795,2.643 -0.419,2.915C-0.328,2.987 -0.234,3.054 -0.139,3.118L0.141,3.317C0.235,3.38 0.326,3.45 0.418,3.509L0.551,3.603C0.59,3.633 0.646,3.667 0.657,3.685L0.897,4.05C1.131,4.408 1.031,4.888 0.673,5.122C0.467,5.257 0.217,5.279 0,5.207" style="fill:rgb(0,0,114);fill-rule:nonzero;"/>
        </g>
        <g transform="matrix(1,0,0,1,295.533,229.414)">
            <path d="M0,5.319C-0.104,5.28 -0.162,5.256 -0.236,5.223C-0.306,5.191 -0.372,5.158 -0.437,5.125C-0.567,5.055 -0.692,4.985 -0.812,4.906C-1.052,4.751 -1.278,4.578 -1.49,4.393C-1.911,4.019 -2.285,3.599 -2.599,3.142C-2.753,2.911 -2.913,2.686 -3.039,2.44L-3.235,2.079L-3.404,1.704C-3.461,1.58 -3.513,1.455 -3.556,1.324C-3.601,1.195 -3.648,1.069 -3.688,0.939C-3.767,0.679 -3.826,0.413 -3.876,0.148C-3.895,0.048 -3.83,-0.048 -3.731,-0.067C-3.669,-0.079 -3.61,-0.058 -3.568,-0.018L-3.557,-0.007C-3.367,0.181 -3.201,0.377 -3.026,0.563C-2.846,0.746 -2.683,0.935 -2.503,1.11C-2.161,1.471 -1.797,1.798 -1.444,2.121C-1.078,2.433 -0.714,2.731 -0.346,3.015C-0.257,3.089 -0.166,3.16 -0.073,3.227L0.201,3.434C0.293,3.5 0.381,3.573 0.471,3.635L0.601,3.733C0.64,3.764 0.694,3.801 0.705,3.818L0.933,4.191C1.156,4.556 1.041,5.032 0.676,5.255C0.466,5.384 0.214,5.398 0,5.319" style="fill:rgb(0,0,114);fill-rule:nonzero;"/>
        </g>
        <g transform="matrix(1,0,0,1,257.808,280.265)">
            <path d="M0,-24.631C0.05,-24.665 0.118,-24.666 0.168,-24.627C0.232,-24.579 0.245,-24.489 0.197,-24.425L-18.169,-0.042C-18.219,0.021 -18.307,0.035 -18.371,-0.013C-18.435,-0.061 -18.447,-0.151 -18.4,-0.215L-0.034,-24.599C-0.024,-24.612 -0.013,-24.622 0,-24.631" style="fill:rgb(48,8,4);fill-rule:nonzero;"/>
        </g>
        <g transform="matrix(1,0,0,1,257.152,278.107)">
            <path d="M0,-23.299C0.057,-23.338 0.135,-23.332 0.184,-23.281C0.24,-23.224 0.239,-23.133 0.183,-23.077L-23.283,-0.017C-23.334,0.038 -23.431,0.039 -23.487,-0.019C-23.543,-0.075 -23.542,-0.167 -23.486,-0.223L-0.02,-23.283C-0.014,-23.289 -0.007,-23.294 0,-23.299" style="fill:rgb(48,8,4);fill-rule:nonzero;"/>
        </g>
        <g transform="matrix(1,0,0,1,256.653,274.226)">
            <path d="M0,-20.146C0.062,-20.188 0.147,-20.176 0.194,-20.117C0.244,-20.054 0.234,-19.964 0.171,-19.914L-24.846,-0.013C-24.891,0.042 -24.998,0.027 -25.048,-0.036C-25.098,-0.098 -25.087,-0.189 -25.025,-0.238L-0.008,-20.14C-0.006,-20.142 -0.003,-20.144 0,-20.146" style="fill:rgb(48,8,4);fill-rule:nonzero;"/>
        </g>
        <g transform="matrix(1,0,0,1,236.622,253.568)">
            <path d="M0,13.01L19.519,-0.238C19.584,-0.283 19.675,-0.266 19.719,-0.2C19.763,-0.134 19.747,-0.045 19.681,-0L19.681,0.001L0.163,13.248C0.097,13.293 0.007,13.276 -0.038,13.21C-0.082,13.144 -0.066,13.055 0,13.01" style="fill:rgb(48,8,4);fill-rule:nonzero;"/>
        </g>
        <g transform="matrix(1,0,0,1,265.943,241.993)">
            <path d="M0,8.07C-0.05,8.104 -0.075,8.167 -0.058,8.228C-0.036,8.305 0.044,8.349 0.121,8.328L29.495,0.021C29.572,-0.003 29.617,-0.081 29.595,-0.157C29.573,-0.234 29.494,-0.279 29.417,-0.257L0.042,8.05C0.027,8.054 0.013,8.061 0,8.07" style="fill:rgb(48,8,4);fill-rule:nonzero;"/>
        </g>
        <g transform="matrix(1,0,0,1,265.411,235.85)">
            <path d="M0,13.303C-0.057,13.342 -0.079,13.417 -0.05,13.481C-0.017,13.554 0.068,13.586 0.141,13.554L30.125,0.013C30.195,-0.015 30.231,-0.105 30.198,-0.178C30.165,-0.251 30.079,-0.283 30.007,-0.25L0.022,13.291C0.014,13.294 0.007,13.298 0,13.303" style="fill:rgb(48,8,4);fill-rule:nonzero;"/>
        </g>
        <g transform="matrix(1,0,0,1,264.912,232.534)">
            <path d="M0,15.891C-0.062,15.933 -0.082,16.017 -0.043,16.083C-0.003,16.152 0.086,16.175 0.154,16.134L27.755,0.005C27.822,-0.017 27.847,-0.123 27.806,-0.192C27.766,-0.261 27.678,-0.284 27.609,-0.243L0.009,15.886C0.006,15.887 0.003,15.889 0,15.891" style="fill:rgb(48,8,4);fill-rule:nonzero;"/>
        </g>
        <g transform="matrix(1,0,0,1,283.807,247.914)">
            <path d="M0,-13.646L-19.409,-0.238C-19.474,-0.193 -19.491,-0.103 -19.446,-0.037C-19.4,0.028 -19.311,0.045 -19.245,0L0.164,-13.408C0.229,-13.454 0.246,-13.544 0.2,-13.609C0.155,-13.674 0.066,-13.691 0,-13.646" style="fill:rgb(48,8,4);fill-rule:nonzero;"/>
        </g>
        <text x="357.243px" y="359.264px" style="font-family:'ProximaNova-Regular', 'Proxima Nova';font-size:123.332px;fill:rgb(81,138,188);">K<tspan x="424.706px " y="359.264px ">O</tspan>SMOS</text>
        <g transform="matrix(1,0,0,1,-29.8537,64.7805)">
            <g transform="matrix(36,0,0,36,930.615,359.264)">
            </g>
            <text x="357.243px" y="359.264px" style="font-family:'ProximaNova-Regular', 'Proxima Nova';font-size:36px;fill:white;">Liberty<tspan x="462.111px " y="359.264px ">,</tspan> Equality<tspan x="602.007px " y="359.264px ">,</tspan> Fraternity<tspan x="767.211px " y="359.264px ">,</tspan> Evolution</text>
        </g>
    </g>
</svg>
